<?xml version="1.0" encoding="UTF-8"?>
<!DOCTYPE svg PUBLIC "-//W3C//DTD SVG 1.1//EN" "http://www.w3.org/Graphics/SVG/1.1/DTD/svg11.dtd">
<!-- Creator: CorelDRAW X6 -->
<svg xmlns="http://www.w3.org/2000/svg" xml:space="preserve" width="4.61111in" height="1.83333in" version="1.1" style="shape-rendering:geometricPrecision; text-rendering:geometricPrecision; image-rendering:optimizeQuality; fill-rule:evenodd; clip-rule:evenodd"
viewBox="0 0 4611 1833"
 xmlns:xlink="http://www.w3.org/1999/xlink">
 <defs>
  <style type="text/css">
   <![CDATA[
    .fil0 {fill:#373435;fill-rule:nonzero}
    .fil1 {fill:#FEFEFE;fill-rule:nonzero}
   ]]>
  </style>
 </defs>
 <g id="Layer_x0020_1">
  <metadata id="CorelCorpID_0Corel-Layer"/>
  <path class="fil0" d="M1 1560c1,-2 3,-4 5,-5 2,-1 3,-2 5,-2 2,0 4,-1 6,0 1,1 2,2 4,3 1,1 3,1 5,2 1,1 3,1 5,3 1,1 3,1 4,2 2,0 4,1 5,2 2,0 4,1 6,1 1,0 3,0 5,1 2,0 4,0 5,1 2,0 4,1 6,1 2,0 4,0 5,0 2,0 4,1 6,0 2,0 4,0 6,0 2,0 3,-1 5,-1 2,0 4,-1 6,0 2,0 4,0 6,0 2,0 4,-1 6,-1 2,0 4,-1 6,-1 2,0 4,-1 6,-1 2,0 4,-1 6,-2 2,0 3,-1 5,-1 2,0 4,-2 6,-2 2,-1 4,-2 6,-3 2,0 4,-2 6,-2 2,-1 3,-3 5,-3 2,-1 4,-3 5,-4 2,-1 4,-3 5,-4 2,-1 4,-3 6,-4 1,-1 3,-3 4,-4 2,-2 3,-4 5,-5 1,-2 3,-3 4,-5 1,-2 2,-4 4,-6 1,-2 2,-3 3,-5 1,-2 2,-3 3,-5 1,-2 2,-3 3,-5 1,-2 2,-3 3,-5 0,-2 1,-4 1,-6 1,-2 2,-4 2,-5 1,-2 1,-4 1,-6 1,-2 1,-4 1,-6 0,-2 1,-4 1,-6 1,-2 0,-4 0,-6 0,-2 0,-4 0,-6 0,-2 -1,-4 -1,-5 0,-2 0,-4 0,-6 -1,-2 -2,-2 -3,-4 0,-2 0,-4 -1,-5 -1,-2 -2,-3 -3,-4 -1,-2 -1,-4 -2,-5 -2,-1 -3,-2 -4,-4 -1,-1 -2,-2 -4,-3 -1,-2 -2,-3 -3,-4 -1,-2 -3,-2 -4,-4 -2,0 -3,-1 -5,-3 -1,-1 -3,-1 -4,-3 -2,0 -3,-1 -5,-3 -1,-1 -3,-1 -5,-2 -1,-1 -3,-1 -4,-3 -2,-1 -4,-1 -5,-2 -2,0 -3,-2 -5,-3 -1,-1 -3,-2 -5,-3 -1,-1 -3,-1 -5,-2 -1,-1 -3,-1 -5,-2 -1,-1 -3,-2 -4,-3 -2,0 -4,-1 -6,-1 -1,-1 -3,-1 -5,-2 -1,-1 -3,-1 -5,-2 -1,-1 -3,-1 -5,-3 -1,-1 -3,-1 -4,-3 -2,0 -4,0 -5,-2 -2,0 -4,-1 -5,-2 -2,0 -3,-2 -5,-3 -1,-1 -3,-1 -5,-2 -1,-1 -3,-2 -4,-4 -2,0 -3,-1 -5,-2 -1,-1 -3,-1 -5,-3 -1,-1 -2,-2 -4,-3 -1,-2 -3,-2 -4,-3 -1,-2 -3,-2 -4,-4 -2,0 -4,-1 -5,-2 -1,-2 -2,-3 -4,-4 -1,-2 -2,-3 -3,-4 -1,-2 -3,-2 -4,-4 -1,-1 -2,-2 -3,-3 -2,-1 -3,-3 -4,-4 -1,-2 -2,-3 -3,-4 -1,-2 -2,-3 -3,-5 -1,-2 -2,-2 -3,-4 -1,-1 -2,-2 -2,-4 -1,-2 -2,-3 -3,-5 0,-2 -2,-2 -2,-4 -1,-2 -1,-4 -2,-5 0,-2 -1,-4 -2,-5 0,-2 -1,-4 -1,-4 -1,-2 -2,-3 -2,-5 -1,-2 -1,-4 -1,-5 0,-2 -2,-3 -2,-5 0,-2 0,-4 0,-6 0,-2 -1,-4 -1,-5 -1,-2 -1,-4 -1,-5 0,-2 1,-4 0,-6 0,-2 0,-4 0,-6 0,-2 0,-4 0,-6 0,-2 0,-4 0,-6 0,-2 0,-4 0,-6 0,-2 1,-4 1,-6 0,-2 0,-4 1,-5 0,-2 -1,-4 0,-6 0,-2 1,-4 1,-6 1,-2 0,-4 1,-6 0,-2 1,-4 1,-6 1,-2 2,-4 2,-6 1,-1 1,-3 2,-5 0,-2 1,-4 2,-6 1,-2 1,-4 2,-6 1,-1 1,-3 2,-5 1,-2 3,-4 3,-5 1,-2 2,-4 3,-6 1,-1 2,-3 4,-5 1,-2 2,-3 3,-5 1,-2 2,-3 3,-5 2,-2 3,-4 4,-6 2,-1 3,-3 5,-5 1,-2 3,-3 4,-5 1,-1 3,-3 4,-5 2,-1 4,-3 5,-4 2,-1 3,-4 5,-5 2,-1 3,-4 4,-5 2,-1 4,-3 6,-4 1,-1 3,-2 5,-3 2,-1 4,-3 5,-4 2,-1 4,-2 6,-3 2,-1 4,-3 5,-3 2,-1 4,-2 6,-3 2,0 4,-3 6,-3 2,-1 4,-1 6,-2 2,0 4,-2 6,-3 1,0 3,-1 5,-2 2,0 4,-1 6,-1 2,-1 4,-2 6,-2 2,0 4,-1 6,-1 2,0 4,-2 6,-2 2,0 4,-1 6,-1 2,0 4,-1 6,-1 2,0 4,-2 6,-2 2,0 4,0 6,0 2,0 4,0 6,0 2,0 3,-1 5,-1 2,0 4,-1 6,-1 2,0 4,0 6,1 2,0 4,-1 6,-1 2,0 4,0 6,0 2,0 4,0 5,0 2,0 4,0 6,0 2,0 4,0 6,0 2,0 4,0 6,0 2,0 4,-1 6,0 2,0 4,-2 6,-1 2,0 3,-1 5,-1 2,0 4,-1 6,-1 2,0 4,-2 6,-2 2,-1 4,-2 5,-3 2,-1 4,-2 5,-3 2,0 4,-1 5,0 2,1 4,0 5,2 1,1 0,3 0,5 1,3 1,3 1,5 0,2 0,4 0,6 1,3 1,3 1,5 0,3 0,3 1,5 0,2 0,4 0,6 0,2 0,4 0,6 0,3 1,3 1,5 0,3 0,3 1,5 0,2 0,4 0,6 0,2 0,4 0,6 0,3 1,3 1,5 0,3 -1,3 -1,6 1,3 1,3 1,5 0,3 1,3 1,5 0,3 0,2 1,4 0,2 0,4 0,6 0,2 0,4 0,6 0,2 0,5 -1,6 -1,2 -3,3 -4,5 -2,1 -4,2 -6,2 -2,0 -4,1 -5,-1 -2,-1 -3,-2 -4,-3 -2,-1 -4,-2 -5,-3 -2,0 -3,-2 -5,-3 -2,-1 -4,-1 -5,-2 -2,-1 -4,-1 -5,-2 -2,-1 -4,-1 -6,-2 -1,-1 -3,0 -5,-1 -2,-1 -4,-1 -5,-2 -2,-1 -4,0 -6,-1 -2,-1 -4,0 -6,-1 -2,0 -4,0 -6,-1 -2,0 -3,0 -5,0 -2,0 -4,0 -6,0 -2,0 -4,0 -6,0 -2,0 -4,-1 -6,-1 -2,0 -4,1 -6,1 -2,0 -4,1 -6,1 -2,0 -4,1 -6,2 -2,0 -4,1 -6,1 -2,1 -4,2 -6,3 -2,0 -4,1 -6,2 -2,1 -3,3 -5,4 -2,1 -4,2 -5,4 -2,1 -4,2 -6,4 -1,1 -3,3 -4,5 -1,1 -2,3 -4,6 -1,1 -2,3 -3,5 -1,2 -1,3 -2,5 -1,2 -2,4 -2,6 -1,2 -2,4 -2,6 0,2 0,4 0,6 0,2 -1,4 -1,6 0,2 0,4 0,6 0,2 -1,4 -1,6 1,2 2,3 2,5 0,2 0,4 1,4 0,2 1,4 2,5 1,2 1,4 2,5 1,2 2,2 3,4 1,2 2,3 3,4 1,2 2,2 4,4 1,1 2,2 4,3 1,2 2,2 3,4 2,0 3,2 4,4 2,0 3,1 5,3 1,1 3,1 4,2 2,1 3,2 4,4 2,0 4,1 5,2 2,1 3,2 5,3 1,1 3,1 5,2 2,0 3,2 4,3 2,1 4,2 5,3 2,0 4,1 5,2 2,1 3,2 5,3 1,1 4,1 5,2 2,0 3,2 5,3 1,1 3,1 5,2 1,2 3,1 5,2 1,2 3,2 4,3 2,1 3,2 5,3 1,1 3,2 5,3 1,1 3,1 4,3 2,0 4,1 5,2 2,1 3,2 5,3 1,1 3,2 4,3 2,1 3,1 5,3 1,1 3,1 4,3 2,0 3,2 5,3 1,1 2,2 3,4 2,1 4,1 5,3 1,1 3,2 4,3 1,2 2,2 4,4 1,1 2,2 3,4 1,1 3,2 4,3 1,2 2,3 3,4 1,2 2,3 3,4 1,2 3,2 4,4 1,2 2,3 3,4 1,2 1,4 2,5 1,2 2,3 3,4 1,2 2,3 3,5 0,1 1,3 2,4 1,2 1,4 2,5 1,2 1,4 2,4 0,2 1,4 2,5 0,2 0,4 0,6 1,2 1,4 2,5 0,2 1,4 1,5 0,2 0,4 1,5 0,2 0,4 0,6 1,2 1,4 1,5 1,2 0,4 1,5 0,2 -1,4 -1,6 0,2 1,4 1,5 0,2 -1,4 -1,6 0,2 0,4 0,6 0,2 0,4 0,6 0,2 0,4 0,6 -1,2 -1,4 -1,6 -1,1 -1,3 -1,5 0,2 -1,4 -1,6 -1,2 -2,4 -2,6 -1,2 -1,4 -2,6 0,2 0,4 -1,6 0,2 -2,3 -2,5 -1,2 -2,4 -2,6 -1,2 -1,4 -2,6 -1,1 -2,3 -3,5 -1,2 -1,4 -2,5 -1,2 -2,4 -3,6 -1,1 -2,3 -3,5 -1,1 -2,3 -3,5 -1,2 -3,3 -4,6 -1,2 -2,3 -3,5 -1,2 -3,3 -4,5 -1,2 -2,4 -3,5 -2,2 -3,3 -5,5 -1,2 -3,3 -4,6 -1,2 -3,3 -4,5 -2,1 -3,3 -4,5 -2,2 -4,3 -5,5 -2,1 -3,3 -5,5 -1,1 -3,3 -5,4 -1,1 -3,3 -5,4 -1,1 -3,3 -5,5 -1,1 -3,3 -5,4 -2,1 -4,2 -5,3 -2,1 -4,3 -6,4 -2,1 -3,3 -5,4 -2,0 -4,1 -6,2 -2,1 -3,3 -5,4 -2,0 -4,2 -6,3 -2,0 -4,1 -6,2 -2,0 -4,2 -6,3 -2,0 -4,1 -6,1 -2,0 -3,2 -5,3 -2,1 -5,1 -7,2 -1,0 -3,2 -5,2 -2,0 -4,1 -6,1 -2,0 -4,1 -6,1 -2,0 -4,1 -6,1 -2,0 -4,2 -6,2 -2,0 -4,1 -6,0 -2,0 -4,1 -6,0 -2,0 -4,1 -6,1 -2,0 -4,1 -6,1 -2,0 -4,0 -6,0 -2,0 -4,1 -6,1 -2,0 -4,-1 -6,0 -2,0 -4,1 -6,1 -2,0 -4,0 -6,0 -2,0 -4,1 -6,0 -2,0 -4,1 -6,1 -2,0 -4,1 -6,1 -2,0 -4,1 -6,1 -2,0 -4,1 -6,1 -2,0 -4,2 -6,2 -2,1 -4,1 -6,2 -2,0 -4,2 -6,2 -2,1 -4,2 -6,2 -2,0 -3,1 -5,0 -2,0 -4,0 -5,-2 -1,-1 -2,-2 -2,-4 0,-2 0,-4 0,-6 0,-2 0,-4 0,-6 0,-3 -1,-3 -1,-5 -1,-3 0,-3 0,-6 -1,-3 -1,-3 -1,-5 0,-3 -1,-3 -1,-5 0,-3 0,-3 -1,-5 0,-3 1,-3 0,-6 0,-2 0,-4 0,-6 -1,-3 -1,-3 -1,-5 0,-3 -1,-3 -1,-5 0,-2 0,-4 0,-6 -1,-3 0,-3 -1,-5 0,-2 0,-4 0,-6 -1,-3 0,-3 -1,-5 0,-2 0,-4 0,-6 -1,-2 -1,-3 -2,-5 0,-2 0,-4 0,-6 0,-2 0,-4 1,-5z"/>
  <path class="fil0" d="M345 1593c-2,-1 -3,-2 -4,-3 -1,-2 -1,-4 -1,-5 0,-2 0,-4 1,-6 1,-1 2,-3 3,-5 1,-2 2,-3 3,-5 1,-2 1,-4 2,-6 0,-2 1,-4 1,-6 1,-2 2,-4 2,-6 1,-2 1,-4 1,-6 0,-2 0,-4 0,-7 1,-2 1,-4 1,-6 1,-2 1,-4 1,-6 0,-2 0,-4 0,-6 0,-2 0,-4 0,-6 0,-2 0,-4 0,-7 0,-2 0,-4 0,-6 0,-2 0,-4 0,-6 0,-2 0,-4 0,-6 0,-2 0,-4 0,-6 0,-2 0,-3 0,-5 0,-2 0,-4 0,-6 0,-2 0,-4 0,-6 0,-2 0,-4 0,-6 0,-2 0,-4 0,-6 0,-2 0,-4 0,-6 0,-2 0,-4 0,-6 0,-2 0,-4 0,-6 0,-2 0,-4 0,-6 0,-2 0,-4 0,-6 0,-2 0,-4 0,-6 0,-2 0,-4 0,-6 0,-2 0,-4 0,-6 0,-2 0,-4 0,-6 0,-2 0,-4 0,-6 0,-2 0,-4 0,-6 0,-2 0,-4 0,-6 0,-2 0,-4 0,-6 0,-2 0,-4 0,-6 0,-2 0,-4 0,-6 0,-2 0,-4 0,-6 0,-2 0,-4 0,-6 0,-2 0,-4 0,-6 0,-2 0,-4 0,-6 0,-2 0,-4 0,-6 0,-2 0,-4 0,-6 0,-2 0,-4 0,-6 0,-2 0,-4 0,-6 0,-2 0,-4 0,-6 0,-2 0,-4 0,-6 0,-2 0,-4 0,-6 0,-2 0,-4 0,-6 0,-2 0,-4 0,-6 0,-2 0,-4 0,-6 0,-2 0,-4 0,-6 0,-2 0,-4 0,-6 0,-2 0,-4 0,-6 0,-2 0,-4 0,-6 0,-2 0,-4 0,-6 0,-2 0,-4 0,-6 0,-2 0,-4 0,-6 0,-2 0,-4 0,-6 0,-2 0,-4 0,-6 0,-2 0,-4 0,-6 0,-2 0,-4 0,-6 0,-2 0,-4 0,-6 0,-2 0,-4 0,-6 0,-2 0,-4 0,-6 0,-2 0,-4 0,-6 0,-2 0,-4 0,-6 0,-2 0,-4 0,-6 0,-2 0,-4 0,-6 0,-2 0,-3 0,-5 0,-2 0,-4 0,-6 0,-3 -1,-3 -1,-5 0,-3 1,-3 1,-6 0,-3 -1,-3 -1,-5 0,-2 0,-4 0,-6 0,-3 1,-3 1,-6 0,-2 0,-4 0,-6 0,-2 0,-4 0,-6 0,-2 0,-4 0,-6 0,-2 0,-4 0,-6 0,-2 0,-4 0,-6 0,-2 0,-4 0,-6 0,-2 0,-4 0,-6 0,-2 0,-4 0,-6 0,-2 0,-4 0,-7 0,-2 0,-4 0,-6 0,-2 0,-4 0,-6 0,-2 -1,-4 -1,-5 0,-2 0,-4 0,-6 0,-2 -1,-4 -1,-5 0,-3 -1,-4 -1,-6 0,-2 -1,-4 -1,-5 0,-2 -1,-4 -2,-5 0,-2 -1,-4 -2,-4 -1,-2 -1,-4 -2,-5 -1,-2 -3,-3 -4,-4 -1,-2 -1,-4 -1,-5 0,-1 0,-3 1,-5 1,-1 2,-3 4,-5 1,-1 3,-2 5,-2 2,0 4,0 6,0 2,0 4,-2 6,-2 2,0 4,0 6,0 2,0 4,-2 6,-2 2,0 4,-1 6,-1 2,0 4,-1 6,-1 2,0 4,-1 6,-1 2,0 4,-1 6,-1 2,0 3,-1 5,-1 2,0 4,-1 6,-1 2,0 4,-1 6,-1 2,0 4,-1 6,-1 2,0 4,-1 6,-1 2,0 4,-1 6,-1 2,0 4,-1 6,-1 2,0 4,-1 6,-1 2,0 4,-1 6,-1 2,0 4,-1 6,-1 2,0 4,-1 6,-1 2,0 4,-1 6,-1 2,0 4,-1 6,-1 2,0 4,0 5,1 2,1 3,0 4,2 1,2 1,4 1,4 0,2 -1,4 -2,5 -1,2 -2,4 -3,6 -1,1 -1,4 -2,6 -1,1 -1,3 -2,5 -1,2 -2,4 -2,6 -1,2 0,4 -1,6 0,2 -1,4 -1,7 0,2 0,4 -1,6 0,2 0,4 0,6 0,2 -1,4 -1,6 0,2 0,4 0,6 0,2 0,4 0,6 0,2 0,4 0,7 0,2 0,4 0,6 0,2 0,3 0,5 0,2 0,4 0,6 0,2 0,4 0,6 0,2 0,4 0,6 0,2 0,4 0,6 0,2 0,4 0,6 0,2 0,4 0,6 0,2 0,3 0,5 0,2 0,4 0,6 0,2 0,4 0,6 0,2 0,4 0,6 0,2 0,4 0,6 0,2 0,4 0,6 0,2 0,4 0,6 0,2 0,4 0,6 0,2 0,3 0,5 0,2 0,4 0,6 0,2 0,4 0,6 0,2 0,4 0,6 0,2 0,4 0,6 0,2 0,4 0,6 0,2 0,4 1,5 1,1 2,2 4,3 1,2 3,2 4,2 2,1 4,1 6,1 2,0 4,-1 6,-1 2,0 4,-1 6,-1 2,0 4,-1 6,-1 2,0 4,-1 6,-1 2,0 4,-1 6,-1 2,0 4,-1 6,-1 2,0 4,-1 6,-1 3,-1 3,-2 7,-2 3,-1 3,0 6,0 2,0 4,-1 6,-1 3,-1 3,-2 6,-2 3,-1 3,0 6,0 2,0 4,-1 6,-1 3,-1 3,-2 6,-2 2,0 4,-1 6,-2 1,0 3,-1 5,-4 1,-1 2,-3 3,-5 0,-1 1,-3 1,-5 0,-2 0,-4 0,-6 0,-2 0,-4 0,-6 0,-2 0,-4 0,-6 0,-2 0,-4 0,-6 0,-2 0,-4 0,-6 0,-2 0,-3 0,-5 0,-2 0,-4 0,-6 0,-2 0,-4 0,-6 0,-2 0,-4 0,-6 0,-2 0,-4 0,-6 0,-2 0,-4 0,-6 0,-2 0,-4 0,-6 0,-2 0,-3 0,-5 0,-2 0,-4 0,-6 0,-2 0,-4 0,-6 0,-2 0,-4 0,-6 0,-2 0,-4 0,-6 0,-2 0,-4 0,-6 0,-2 0,-4 0,-6 0,-2 0,-4 0,-6 0,-2 0,-3 0,-5 0,-2 0,-4 0,-6 0,-2 0,-4 0,-7 0,-2 0,-4 0,-6 0,-2 -1,-4 -1,-5 0,-2 0,-4 0,-6 0,-2 0,-4 0,-6 0,-2 -1,-4 -1,-5 0,-3 -1,-5 -1,-6 0,-2 -1,-4 -1,-5 -1,-2 -1,-4 -2,-5 0,-2 -1,-4 -2,-5 -1,-1 -1,-3 -2,-4 -1,-2 -3,-3 -4,-4 -1,-2 -2,-3 -2,-5 0,-1 1,-3 2,-5 1,-1 2,-3 3,-4 2,-1 4,-2 6,-2 2,0 4,-1 6,-1 2,0 4,-1 6,-1 2,0 4,-1 6,-1 2,0 4,-1 6,-1 2,0 4,-1 6,-1 2,0 4,-1 6,-1 2,0 4,-1 6,-1 2,0 4,-1 6,-1 2,0 3,-1 5,-1 2,0 4,-1 6,-1 2,0 4,-1 6,-1 2,0 4,-1 6,-1 2,0 4,-1 6,-1 2,0 4,-1 6,-1 2,0 4,-1 6,-1 2,0 4,-1 6,-1 2,0 4,-1 6,-1 2,0 4,-1 6,-1 2,0 4,-1 6,-1 2,0 4,-1 6,-1 2,0 4,-1 6,-1 2,0 4,0 5,1 2,0 4,0 4,2 1,2 1,4 1,5 0,2 0,4 -1,6 -1,1 -3,3 -4,5 -1,2 -1,4 -2,6 -1,1 -1,3 -2,6 0,1 -2,3 -2,5 -1,2 -1,4 -1,6 -1,2 -1,4 -1,7 0,2 -1,4 -1,6 0,2 0,4 0,6 0,2 0,4 0,6 -1,2 0,4 -1,6 0,2 0,4 0,6 0,2 0,4 0,7 0,2 0,4 0,6 0,2 0,4 0,6 0,2 0,4 0,6 0,2 0,4 0,6 0,2 0,4 0,6 0,2 0,4 0,6 0,2 0,4 0,6 0,2 0,4 0,6 0,2 0,4 0,6 0,3 -1,3 -1,5 0,3 1,3 1,5 0,3 -1,3 -1,6 0,3 1,3 1,5 0,2 0,4 0,6 0,2 0,4 0,6 0,2 0,4 0,6 0,2 0,4 0,6 0,2 0,4 0,6 0,2 0,4 0,6 0,2 0,4 0,6 0,2 0,4 0,6 0,2 0,4 0,6 0,2 0,4 0,6 0,2 0,4 0,6 0,2 0,4 0,6 0,2 0,4 0,6 0,2 0,4 0,6 0,2 0,4 0,6 0,2 0,4 0,6 0,2 0,4 0,6 0,2 0,4 0,6 0,2 0,4 0,6 0,2 0,4 0,6 0,2 0,4 0,6 0,2 0,4 0,6 0,2 0,4 0,6 0,2 0,4 0,6 0,3 -1,3 -1,6 0,3 1,3 1,5 0,2 0,4 0,6 0,2 0,4 0,6 0,2 0,4 0,6 0,2 0,4 0,6 0,2 0,4 0,6 0,2 0,4 0,6 0,2 0,4 0,6 0,2 0,4 0,6 0,2 0,4 0,6 0,2 0,4 0,6 0,2 0,4 0,6 0,2 0,4 0,6 0,2 0,4 0,6 0,2 0,4 0,6 0,2 0,4 0,6 0,2 0,4 0,6 0,2 0,4 0,6 0,2 0,4 0,6 0,2 0,4 0,6 0,2 0,4 0,6 0,2 0,4 0,6 0,2 0,4 0,6 0,2 0,4 0,6 0,2 0,3 0,5 0,2 0,4 0,6 0,2 0,4 0,6 0,2 0,4 0,6 0,2 0,4 0,6 0,2 0,4 0,6 0,2 0,4 0,6 0,2 0,4 0,6 0,2 0,4 0,6 0,2 0,4 0,7 1,2 0,4 1,5 0,2 -1,4 0,6 0,2 0,4 0,6 0,2 0,4 0,6 0,3 1,4 1,5 1,3 0,5 1,6 0,2 0,4 1,5 0,2 1,4 2,5 0,2 2,3 2,4 1,2 1,5 2,5 1,2 3,3 4,4 1,2 1,4 1,5 0,1 0,3 -1,5 -1,1 -2,3 -4,4 -1,1 -3,1 -5,2 -2,0 -4,1 -6,1 -2,0 -4,1 -6,1 -2,0 -4,1 -6,1 -2,0 -4,1 -6,1 -2,0 -4,1 -6,1 -2,0 -4,1 -6,1 -2,0 -4,1 -6,1 -2,0 -4,1 -6,1 -2,0 -4,1 -6,1 -2,0 -4,1 -6,1 -2,0 -4,1 -6,1 -2,0 -4,1 -6,1 -2,0 -3,1 -5,1 -2,0 -4,1 -6,1 -2,0 -4,1 -6,1 -2,0 -4,1 -6,1 -2,0 -4,1 -6,1 -2,0 -4,1 -6,1 -2,0 -4,1 -6,1 -2,0 -4,1 -6,1 -2,0 -4,1 -6,1 -2,0 -4,0 -5,-1 -2,0 -3,0 -4,-2 -1,-2 -1,-4 -1,-5 0,-2 1,-4 2,-5 1,-2 2,-4 3,-6 1,-1 1,-4 2,-6 0,-1 1,-3 2,-5 1,-2 1,-4 2,-6 0,-2 0,-4 1,-6 0,-2 1,-4 1,-6 1,-2 0,-5 1,-7 0,-2 0,-4 0,-6 0,-2 1,-4 1,-6 0,-2 0,-4 0,-6 0,-2 0,-4 0,-6 0,-2 0,-4 0,-7 0,-2 0,-4 0,-6 0,-2 0,-4 0,-6 0,-2 0,-4 0,-6 0,-2 0,-4 0,-6 0,-2 0,-4 0,-6 0,-3 -1,-3 -1,-5 0,-3 1,-3 1,-6 0,-2 0,-4 0,-6 0,-2 0,-4 0,-6 0,-2 0,-4 0,-6 0,-2 0,-4 0,-6 0,-2 0,-4 0,-6 0,-2 0,-4 0,-6 0,-2 0,-4 0,-6 0,-2 0,-4 0,-6 0,-2 0,-4 0,-6 0,-2 0,-4 0,-6 0,-2 0,-4 0,-6 0,-2 0,-4 0,-6 0,-2 0,-4 0,-6 0,-2 0,-4 0,-6 0,-2 0,-4 0,-7 0,-2 0,-4 0,-6 0,-2 0,-4 0,-6 0,-2 0,-4 0,-6 0,-2 0,-4 0,-6 0,-3 -1,-3 -1,-5 0,-3 1,-3 1,-6 0,-2 0,-4 -1,-5 -1,-2 -2,-2 -4,-3 -1,-2 -3,-2 -4,-3 -2,0 -4,0 -6,0 -2,0 -4,1 -6,1 -3,1 -3,1 -6,2 -3,1 -3,0 -6,0 -2,0 -4,1 -6,1 -2,0 -4,1 -6,1 -2,0 -4,1 -6,1 -2,0 -5,1 -7,1 -2,0 -4,1 -6,1 -2,0 -4,1 -6,1 -2,0 -4,1 -6,1 -2,0 -4,1 -6,1 -2,0 -4,1 -6,1 -2,0 -4,1 -6,1 -2,0 -4,1 -6,1 -2,0 -4,2 -6,2 -2,1 -3,2 -5,5 -1,1 -2,3 -3,4 -1,2 -1,4 -1,6 0,2 0,4 0,6 0,2 0,4 0,6 0,2 0,4 0,6 0,2 0,4 0,6 0,2 0,4 0,6 0,2 0,4 0,6 0,2 0,4 0,6 0,2 0,4 0,7 0,2 0,4 0,6 0,2 0,4 0,6 0,2 0,4 0,6 0,2 0,4 0,6 0,2 0,4 0,6 0,3 -1,3 -1,6 0,2 0,4 0,6 0,3 1,3 1,5 0,2 0,4 0,6 0,2 0,4 0,6 0,2 0,4 0,6 0,2 0,4 0,6 0,2 0,4 0,6 0,2 0,4 0,6 0,2 0,4 0,6 0,2 0,4 0,6 0,2 0,4 0,6 0,2 0,4 0,6 0,2 0,4 0,6 0,2 0,4 0,6 0,2 0,4 0,7 0,2 0,4 0,6 0,2 0,4 0,6 0,2 1,4 1,5 0,2 0,4 1,5 0,2 0,4 0,7 0,2 1,4 1,5 0,2 1,4 1,5 1,2 1,4 2,5 1,2 1,4 2,5 0,2 2,2 3,4 1,2 2,3 3,4 1,2 2,3 2,5 0,1 -1,3 -2,5 -1,2 -2,3 -4,5 -1,1 -3,2 -5,2 -2,0 -4,1 -6,1 -2,0 -4,1 -6,1 -2,0 -4,1 -6,1 -2,0 -4,2 -6,2 -2,0 -4,0 -6,0 -2,0 -4,1 -6,1 -2,0 -4,1 -6,1 -2,0 -4,1 -6,1 -2,0 -4,1 -6,1 -2,0 -4,1 -6,1 -2,0 -4,1 -6,1 -2,0 -4,1 -6,1 -2,0 -3,1 -5,1 -2,0 -4,1 -6,1 -2,0 -4,1 -6,1 -2,0 -4,1 -6,1 -2,0 -4,1 -6,1 -2,0 -4,1 -6,1 -2,0 -4,1 -6,1 -2,0 -4,1 -6,1 -2,0 -4,1 -6,1 -2,0 -4,0 -5,0z"/>
  <path class="fil0" d="M764 1517c-1,-1 -2,-2 -3,-3 -1,-2 -2,-3 -2,-4 1,-2 1,-4 2,-5 1,-2 2,-4 3,-6 1,-2 2,-3 3,-5 1,-2 1,-4 2,-6 0,-2 1,-4 1,-6 1,-2 1,-4 2,-6 0,-2 1,-4 1,-6 0,-2 1,-4 1,-7 0,-2 0,-4 0,-6 0,-2 0,-4 0,-6 0,-2 0,-4 0,-6 0,-2 1,-4 1,-6 0,-2 -1,-4 -1,-6 0,-3 1,-3 1,-6 0,-2 0,-4 0,-6 0,-2 0,-4 0,-6 0,-2 0,-4 0,-6 0,-2 0,-3 0,-5 0,-2 0,-4 0,-6 0,-2 0,-4 0,-6 0,-3 -1,-3 -1,-5 0,-3 1,-3 1,-6 0,-3 -1,-3 -1,-5 0,-2 0,-4 0,-6 0,-2 0,-4 0,-6 0,-3 1,-3 1,-6 0,-2 0,-4 0,-6 0,-2 0,-4 0,-6 0,-2 0,-4 0,-6 0,-2 0,-4 0,-6 0,-2 0,-4 0,-6 0,-2 0,-4 0,-6 0,-2 0,-4 0,-6 0,-3 -1,-3 -1,-5 0,-3 1,-3 1,-6 0,-2 0,-4 0,-6 0,-3 -1,-3 -1,-5 0,-3 1,-3 1,-6 0,-2 0,-4 0,-6 0,-2 0,-4 0,-6 0,-2 0,-4 0,-6 0,-2 0,-4 0,-6 0,-3 -1,-3 -1,-5 0,-2 0,-4 0,-6 0,-2 0,-4 0,-6 0,-3 1,-3 1,-6 0,-2 0,-4 0,-6 0,-3 -1,-3 -1,-5 0,-3 1,-3 1,-6 0,-3 -1,-3 -1,-5 0,-2 0,-4 0,-6 0,-3 1,-3 1,-6 0,-2 0,-4 0,-6 0,-2 0,-4 0,-6 0,-3 -1,-3 -1,-5 0,-3 1,-3 1,-6 0,-2 0,-4 0,-6 0,-2 0,-4 0,-6 0,-3 -1,-3 -1,-5 0,-3 1,-3 1,-6 0,-2 0,-4 0,-6 0,-2 0,-4 0,-6 0,-2 0,-4 0,-6 0,-2 0,-4 0,-6 0,-2 0,-4 0,-6 0,-2 0,-4 0,-6 0,-2 0,-4 0,-6 0,-2 0,-4 0,-6 0,-2 0,-4 0,-6 0,-2 0,-3 0,-5 0,-2 0,-4 0,-6 0,-2 0,-4 0,-6 0,-3 -1,-3 -1,-5 0,-2 0,-4 0,-6 0,-2 0,-4 0,-6 0,-3 1,-3 1,-6 0,-2 0,-4 0,-6 0,-2 0,-4 0,-6 0,-3 -1,-3 -1,-5 0,-3 1,-3 1,-6 0,-2 0,-4 0,-6 0,-2 0,-4 0,-6 0,-2 0,-4 0,-6 0,-3 -1,-3 -1,-5 0,-2 0,-4 0,-6 0,-2 0,-4 0,-7 0,-2 0,-4 0,-6 0,-2 0,-4 0,-6 -1,-2 -1,-4 -1,-5 0,-2 0,-4 -1,-5 0,-2 0,-4 0,-7 0,-2 -1,-4 -1,-5 -1,-2 -2,-3 -3,-5 0,-2 0,-4 -1,-5 -1,-1 -2,-2 -3,-4 -1,-2 -2,-3 -3,-4 -1,-2 -2,-3 -2,-5 0,-1 1,-3 2,-5 1,-1 2,-2 3,-3 2,-1 4,-3 5,-3 2,0 4,-1 6,-1 2,0 4,-1 6,-1 2,0 4,-1 6,-1 2,0 4,-1 6,-1 2,0 5,-1 7,-1 2,0 4,-1 6,-1 2,0 4,-1 6,-1 2,0 4,-1 6,-1 2,0 4,0 6,0 2,0 4,-2 6,-2 2,0 4,-1 6,-1 2,0 4,-1 6,-1 2,0 4,-1 6,-1 2,0 4,-1 6,-1 2,0 4,-1 6,-1 2,0 4,-1 6,-1 2,0 4,-1 6,-1 2,0 4,-1 6,-1 2,0 4,-1 6,-1 2,0 4,-1 6,-1 2,0 3,-1 5,-1 2,0 4,-1 6,-1 2,0 4,-1 6,-1 2,0 4,-1 6,-1 2,0 4,0 6,0 2,0 4,-2 6,-2 2,0 4,-1 6,-1 2,0 4,-1 6,-1 2,0 4,-1 6,-1 2,0 4,-1 6,-1 2,0 4,-1 6,-1 2,0 4,-1 6,-1 2,0 4,-1 6,0 2,0 4,-1 6,-2 2,0 4,-1 6,-1 2,0 4,-1 6,-1 2,0 4,0 6,0 2,0 4,-1 6,-2 2,0 4,-1 6,-1 2,-1 4,-1 6,-2 2,0 4,-1 6,-2 2,0 4,-1 5,-2 2,0 4,-1 6,-2 2,0 4,-1 6,-1 2,0 4,0 6,1 2,1 3,1 4,3 1,1 2,3 3,4 0,2 1,4 1,6 1,2 1,4 1,6 1,2 1,4 2,5 0,2 0,4 1,6 0,2 1,4 1,5 0,2 1,4 2,5 0,2 0,4 1,6 0,2 0,4 1,5 0,1 1,3 1,5 1,2 1,4 2,5 0,2 1,4 1,6 1,2 1,4 2,5 0,2 0,4 0,6 1,2 2,4 2,5 1,2 1,4 1,6 1,2 1,4 2,5 0,1 0,3 -1,5 0,1 -1,3 -2,3 -2,1 -4,2 -6,3 -1,0 -3,-1 -5,-1 -1,-1 -3,-1 -5,-2 -2,0 -4,-1 -5,-1 -2,-1 -4,-1 -6,-1 -2,-1 -4,-1 -6,-1 -2,-1 -4,1 -6,1 -2,-1 -4,0 -6,-1 -1,0 -3,-1 -5,0 -2,0 -4,0 -6,0 -2,0 -4,1 -6,1 -2,0 -4,1 -6,1 -2,0 -4,1 -6,1 -2,-1 -4,1 -6,1 -2,0 -4,1 -6,1 -3,0 -3,-1 -6,0 -2,0 -4,1 -6,1 -2,0 -4,1 -6,1 -2,0 -4,1 -6,1 -2,0 -4,1 -6,1 -2,0 -4,1 -6,1 -3,0 -3,1 -6,2 -3,0 -3,0 -6,0 -3,0 -3,1 -6,2 -2,0 -4,1 -6,1 -2,0 -4,1 -6,1 -2,0 -4,1 -6,1 -2,0 -4,1 -6,2 -2,0 -3,2 -5,4 -1,1 -2,3 -3,5 -1,1 -1,3 -1,5 0,2 0,4 0,6 0,3 -1,3 -1,6 0,2 0,4 0,6 0,3 1,3 1,5 0,2 0,4 0,6 0,2 0,4 0,6 0,2 0,3 0,5 0,3 -1,3 -1,6 0,3 1,3 1,5 0,2 0,4 0,6 0,2 0,4 0,6 0,3 -1,3 -1,6 0,2 0,4 0,6 0,2 0,3 0,5 0,3 1,3 1,5 0,2 0,4 0,6 0,2 0,4 0,6 0,2 0,4 0,6 0,2 0,4 0,6 1,2 3,2 4,3 2,2 3,2 5,3 2,0 4,0 6,0 2,0 4,-1 6,-1 2,0 5,-1 7,-1 2,0 5,-1 7,-1 2,0 4,-1 6,-1 2,0 5,-1 7,-1 2,0 4,-2 6,-2 2,0 4,0 6,0 2,-1 4,-2 6,-2 2,0 4,-1 6,-1 3,0 5,-2 7,-2 2,-1 4,-1 6,-2 2,0 4,-2 6,-2 2,-1 4,-1 6,-3 2,0 4,-2 6,-3 2,-1 4,-2 5,-4 2,-1 4,-2 6,-3 1,-1 3,-2 5,-3 2,0 3,0 5,-1 2,1 3,2 4,3 1,2 1,4 1,5 0,2 0,3 0,5 0,2 0,4 0,6 0,2 0,4 0,6 0,2 1,4 1,6 0,2 -1,4 -1,6 0,2 0,4 0,6 0,2 0,4 0,6 0,2 0,4 0,6 0,2 0,4 0,6 0,2 0,4 0,6 0,2 0,4 0,6 0,2 0,4 0,6 0,2 0,4 0,6 0,2 0,4 0,6 0,2 0,4 0,6 0,2 0,4 0,6 0,2 0,3 0,5 0,2 0,4 0,6 0,2 -1,4 -1,5 -1,2 -3,3 -4,4 -2,1 -4,2 -5,3 -2,0 -4,-1 -5,-2 -2,-1 -4,0 -6,-1 -2,-1 -3,-2 -5,-2 -2,-1 -4,0 -6,-1 -2,-1 -4,0 -6,0 -2,-1 -4,-1 -6,-1 -2,-1 -4,0 -6,0 -2,0 -4,1 -7,0 -2,0 -4,2 -6,1 -2,0 -4,1 -6,1 -2,-1 -4,0 -6,0 -2,0 -4,1 -6,1 -2,0 -4,2 -7,2 -3,0 -3,-1 -6,0 -4,1 -4,2 -7,2 -2,0 -5,1 -7,1 -3,0 -3,0 -6,0 -2,0 -4,1 -6,2 -2,1 -3,2 -5,5 -1,1 -2,3 -3,5 -1,1 -1,3 -1,5 0,2 0,4 0,6 0,3 -1,3 -1,6 0,3 1,3 1,5 0,2 0,4 0,6 0,3 -1,3 -1,6 0,4 1,4 1,6 0,2 0,4 0,6 0,2 0,4 0,6 0,3 -1,3 -1,6 0,3 1,3 1,5 0,2 0,4 0,6 0,2 0,4 0,6 0,2 0,4 0,6 0,2 0,4 0,6 0,2 0,4 0,6 0,3 -1,3 -1,6 0,3 1,3 1,5 0,3 -1,3 -1,6 0,2 0,4 0,6 0,3 1,3 1,5 0,2 0,4 0,6 0,2 0,4 0,7 0,2 0,4 0,6 0,2 0,4 0,6 0,2 0,4 1,5 1,2 2,3 3,4 2,2 3,2 5,3 2,1 4,-1 6,-1 3,0 3,0 6,0 2,0 4,-1 6,-1 2,0 4,-1 6,-1 2,0 4,-1 6,-1 2,0 3,0 5,-1 3,0 3,-1 6,-2 2,0 4,-1 6,-1 2,0 4,-1 6,-1 3,0 3,0 6,0 2,0 4,-1 6,-1 3,0 3,-1 6,-2 3,0 3,1 6,0 2,0 4,-2 6,-2 2,0 4,-1 6,-1 2,0 4,-1 6,-1 2,0 4,-1 6,-1 2,0 4,-1 6,-1 2,0 4,-2 6,-2 2,-1 4,-1 6,-2 2,-1 4,-1 5,-2 2,-1 4,-1 6,-2 2,-1 4,-2 6,-3 2,-1 4,-1 6,-3 2,0 3,-2 5,-3 2,-1 3,-1 5,-3 2,-1 4,-2 5,-3 2,0 4,0 5,1 2,1 3,1 4,2 1,2 1,4 0,5 0,2 -1,4 -2,6 0,2 0,4 -1,6 0,2 -1,4 -1,6 -1,2 -1,4 -2,6 0,2 -1,4 -1,6 0,2 -1,4 -1,6 0,2 -1,4 -2,6 0,2 0,4 0,6 -1,2 -1,4 -1,6 -1,2 -2,4 -2,6 0,2 -1,4 -1,6 -1,1 -2,3 -2,5 0,2 0,4 -1,6 0,2 -1,4 -1,6 -1,2 -1,4 -1,6 -1,2 -2,4 -2,6 0,2 -1,4 -2,6 -2,1 -3,2 -5,3 -2,1 -4,3 -6,4 -2,0 -4,1 -6,1 -2,-1 -4,-1 -5,-1 -2,0 -4,0 -6,-1 -2,0 -4,1 -6,1 -2,0 -4,1 -6,1 -2,0 -4,1 -6,1 -2,0 -4,0 -6,0 -2,-1 -4,1 -6,1 -2,0 -4,1 -6,1 -2,0 -4,1 -6,1 -2,0 -4,1 -6,1 -2,0 -3,0 -5,1 -2,0 -4,1 -6,1 -2,0 -4,1 -6,1 -2,0 -4,1 -6,1 -2,0 -4,1 -6,1 -2,0 -4,1 -6,1 -2,0 -4,1 -6,1 -2,0 -4,1 -6,1 -2,0 -4,1 -6,1 -2,0 -4,1 -6,1 -2,0 -4,1 -6,1 -2,0 -4,1 -6,1 -2,0 -3,1 -5,1 -2,0 -4,1 -6,1 -2,0 -4,1 -6,1 -2,0 -4,1 -6,1 -2,0 -4,1 -6,1 -2,0 -4,1 -6,1 -2,0 -4,1 -6,1 -2,0 -4,1 -6,1 -2,0 -4,1 -6,1 -2,0 -4,1 -6,1 -2,0 -4,1 -6,1 -2,0 -3,1 -5,1 -2,0 -4,1 -6,1 -2,0 -4,1 -6,1 -2,0 -4,1 -6,1 -2,0 -4,1 -6,1 -2,0 -4,1 -6,1 -2,0 -4,1 -6,1 -2,0 -4,1 -6,1 -2,0 -5,1 -7,1 -2,0 -5,1 -7,1 -1,0 -3,0 -5,0z"/>
  <path class="fil0" d="M1103 1470c-1,-1 -2,-3 -3,-3 -1,-2 -2,-4 -2,-4 1,-2 1,-4 2,-5 1,-2 2,-4 3,-6 1,-2 2,-3 3,-5 1,-2 1,-4 2,-6 0,-2 1,-4 1,-6 1,-2 1,-4 2,-6 0,-2 1,-4 1,-6 0,-2 1,-4 1,-7 0,-2 0,-4 0,-6 0,-2 0,-4 0,-6 0,-2 0,-4 0,-6 0,-2 1,-4 1,-6 0,-2 -1,-4 -1,-6 0,-3 1,-3 1,-6 0,-2 0,-4 0,-6 0,-2 0,-4 0,-6 0,-2 0,-4 0,-6 0,-2 0,-3 0,-5 0,-2 0,-4 0,-6 0,-2 0,-4 0,-6 0,-3 -1,-3 -1,-6 0,-3 1,-3 1,-6 0,-3 -1,-3 -1,-6 0,-2 0,-4 0,-6 0,-2 0,-4 0,-6 0,-3 1,-3 1,-6 0,-2 0,-4 0,-6 0,-2 0,-4 0,-6 0,-2 0,-4 0,-6 0,-2 0,-4 0,-6 0,-2 0,-4 0,-6 0,-2 0,-4 0,-6 0,-2 0,-4 0,-6 0,-3 -1,-3 -1,-6 0,-3 1,-3 1,-6 0,-2 0,-4 0,-6 0,-3 -1,-3 -1,-6 0,-3 1,-3 1,-6 0,-2 0,-4 0,-6 0,-2 0,-4 0,-6 0,-2 0,-4 0,-6 0,-2 0,-4 0,-6 0,-3 -1,-3 -1,-6 0,-2 0,-4 0,-6 0,-2 0,-4 0,-6 0,-3 1,-3 1,-6 0,-2 0,-4 0,-6 0,-3 -1,-3 -1,-6 0,-3 1,-3 1,-6 0,-3 -1,-3 -1,-6 0,-2 0,-4 0,-6 0,-3 1,-3 1,-6 0,-2 0,-4 0,-6 0,-2 0,-4 0,-6 0,-3 -1,-3 -1,-6 0,-3 1,-3 1,-6 0,-2 0,-4 0,-6 0,-2 0,-4 0,-6 0,-3 -1,-3 -1,-6 0,-3 1,-3 1,-6 0,-2 0,-4 0,-6 0,-2 0,-4 0,-6 0,-2 0,-4 0,-6 0,-2 0,-4 0,-6 0,-2 0,-4 0,-6 0,-2 0,-4 0,-6 0,-2 0,-4 0,-6 0,-2 0,-4 0,-6 0,-2 0,-4 0,-6 0,-2 0,-3 0,-5 0,-2 0,-4 0,-6 0,-2 0,-4 0,-6 0,-3 -1,-3 -1,-6 0,-2 0,-4 0,-6 0,-2 0,-4 0,-6 0,-3 1,-3 1,-6 0,-2 0,-4 0,-6 0,-2 0,-4 0,-6 0,-3 -1,-3 -1,-6 0,-3 1,-3 1,-6 0,-2 0,-4 0,-6 0,-2 0,-4 0,-6 0,-2 0,-4 0,-6 0,-3 -1,-3 -1,-6 0,-2 0,-4 0,-6 0,-2 0,-4 0,-7 0,-2 0,-4 0,-6 0,-2 0,-4 0,-6 -1,-2 -1,-4 -1,-6 0,-2 0,-4 -1,-5 0,-2 0,-4 0,-7 0,-2 -1,-4 -1,-6 -1,-2 -2,-4 -3,-5 0,-2 0,-4 -1,-5 -1,-1 -2,-3 -3,-4 -1,-2 -2,-3 -3,-4 -1,-2 -2,-4 -2,-5 0,-1 1,-3 2,-5 1,-1 2,-2 3,-3 2,-1 4,-2 5,-3 2,0 4,-1 6,-1 2,0 4,-1 6,-1 2,0 4,-1 6,-1 2,0 4,0 6,-1 2,0 5,-1 7,-1 2,0 4,0 6,-1 2,0 4,-1 6,-1 2,0 4,0 6,-1 2,0 4,0 6,0 2,0 4,-1 6,-2 2,0 4,0 6,-1 2,0 4,0 6,-1 2,0 4,0 6,-1 2,0 4,0 6,-1 2,0 4,0 6,-1 2,0 4,0 6,-1 2,0 4,0 6,-1 2,0 4,0 6,-1 2,0 4,0 6,-1 2,0 4,0 6,-1 2,0 3,0 5,-1 2,0 4,0 6,-1 2,0 4,0 6,-1 2,0 4,0 6,-1 2,0 4,0 6,0 2,0 4,-1 6,-2 2,0 4,0 6,-1 2,0 4,0 6,-1 2,0 4,0 6,-1 2,0 4,0 6,-1 2,0 4,0 6,-1 2,0 4,0 6,-1 2,0 4,0 6,0 2,0 4,-1 6,-2 2,0 4,0 6,-1 2,0 4,0 6,-1 2,0 4,1 6,0 2,0 4,-1 6,-2 2,0 4,0 6,-1 2,-1 4,0 6,-2 2,0 4,0 6,-2 2,0 4,0 5,-1 2,0 4,0 6,-2 2,0 4,-1 6,-1 2,0 4,1 6,1 2,1 3,2 4,3 1,1 2,3 3,4 0,2 1,4 1,6 1,2 1,4 1,6 1,2 1,4 2,5 0,2 0,4 1,6 0,2 1,4 1,6 0,2 1,4 2,5 0,2 0,4 1,6 0,2 0,4 1,6 0,1 1,3 1,5 1,2 1,4 2,5 0,2 1,4 1,6 1,2 1,4 2,5 0,2 0,4 0,6 1,2 2,4 2,5 1,2 1,4 1,6 1,2 1,4 2,5 0,1 0,3 -1,5 0,1 -1,3 -2,3 -2,1 -4,2 -6,2 -1,0 -3,-1 -5,-1 -1,-1 -3,-2 -5,-2 -2,0 -4,-2 -5,-1 -2,-1 -4,-1 -6,-1 -2,-1 -4,-1 -6,-1 -2,-1 -4,0 -6,1 -2,-1 -4,-1 -6,-1 -1,0 -3,-1 -5,0 -2,0 -4,-1 -6,0 -2,0 -4,0 -6,1 -2,0 -4,0 -6,1 -2,0 -4,0 -6,1 -2,-1 -4,0 -6,1 -2,0 -4,0 -6,1 -3,0 -3,-1 -6,0 -2,0 -4,0 -6,1 -2,0 -4,0 -6,1 -2,0 -4,0 -6,1 -2,0 -4,0 -6,1 -2,0 -4,0 -6,1 -3,0 -3,1 -6,2 -3,0 -3,-1 -6,0 -3,0 -3,1 -6,2 -2,0 -4,0 -6,1 -2,0 -4,0 -6,1 -2,0 -4,0 -6,1 -2,0 -4,0 -6,2 -2,0 -3,2 -5,3 -1,1 -2,3 -3,5 -1,1 -1,3 -1,5 0,2 0,4 0,6 0,3 -1,3 -1,6 0,2 0,4 0,6 0,3 1,3 1,6 0,2 0,4 0,6 0,2 0,4 0,6 0,2 0,3 0,5 0,3 -1,3 -1,6 0,3 1,3 1,6 0,2 0,4 0,6 0,2 0,4 0,6 0,3 -1,3 -1,6 0,2 0,4 0,6 0,2 0,3 0,5 0,3 1,3 1,6 0,2 0,4 0,6 0,2 0,4 0,6 0,2 0,4 0,6 0,2 0,4 0,6 1,2 3,2 4,3 2,2 3,2 5,3 2,0 4,0 6,0 2,0 4,0 6,-1 2,0 5,-1 7,-1 2,0 5,-1 7,-1 2,0 4,0 6,-1 2,0 5,-1 7,-1 2,0 4,-1 6,-2 2,0 4,1 6,0 2,-1 4,-1 6,-2 2,0 4,0 6,-1 3,0 5,-1 7,-2 2,-1 4,0 6,-2 2,0 4,-1 6,-2 2,-1 4,-1 6,-2 2,0 4,-1 6,-2 2,-1 4,-2 5,-3 2,-1 4,-1 6,-2 1,-1 3,-2 5,-2 2,0 3,0 5,0 2,1 3,3 4,3 1,2 1,4 1,6 0,2 0,3 0,5 0,2 0,4 0,6 0,2 0,4 0,6 0,2 1,4 1,6 0,2 -1,4 -1,6 0,2 0,4 0,6 0,2 0,4 0,6 0,2 0,4 0,6 0,2 0,4 0,6 0,2 0,4 0,6 0,2 0,4 0,6 0,2 0,4 0,6 0,2 0,4 0,6 0,2 0,4 0,6 0,2 0,4 0,6 0,2 0,4 0,6 0,2 0,3 0,5 0,2 0,4 0,6 0,2 -1,4 -1,5 -1,2 -3,3 -4,4 -2,1 -4,2 -5,2 -2,0 -4,-1 -5,-2 -2,-1 -4,-1 -6,-1 -2,-1 -3,-3 -5,-2 -2,-1 -4,-1 -6,-1 -2,-1 -4,-1 -6,0 -2,-1 -4,-1 -6,-1 -2,-1 -4,-1 -6,0 -2,0 -4,0 -7,0 -2,0 -4,1 -6,1 -2,0 -4,0 -6,1 -2,-1 -4,0 -6,0 -2,0 -4,0 -6,1 -2,0 -4,1 -7,2 -3,0 -3,-1 -6,0 -4,0 -4,1 -7,2 -2,0 -5,1 -7,1 -3,0 -3,-1 -6,0 -2,0 -4,0 -6,2 -2,1 -3,2 -5,4 -1,1 -2,3 -3,5 -1,1 -1,3 -1,5 0,2 0,4 0,6 0,3 -1,3 -1,6 0,3 1,3 1,6 0,2 0,4 0,6 0,3 -1,3 -1,6 0,4 1,4 1,6 0,2 0,4 0,6 0,2 0,4 0,6 0,3 -1,3 -1,6 0,3 1,3 1,6 0,2 0,4 0,6 0,2 0,4 0,6 0,2 0,4 0,6 0,2 0,4 0,6 0,2 0,4 0,6 0,3 -1,3 -1,6 0,3 1,3 1,6 0,3 -1,3 -1,6 0,2 0,4 0,6 0,3 1,3 1,6 0,2 0,4 0,6 0,2 0,4 0,7 0,2 0,4 0,6 0,2 0,4 0,6 0,2 0,4 1,5 1,2 2,4 3,4 2,2 3,2 5,3 2,1 4,0 6,-1 3,0 3,1 6,0 2,0 4,0 6,-1 2,0 4,0 6,-1 2,0 4,0 6,-1 2,0 3,0 5,-1 3,0 3,-1 6,-2 2,0 4,0 6,-1 2,0 4,0 6,-1 3,0 3,1 6,0 2,0 4,0 6,-1 3,0 3,-1 6,-2 3,0 3,1 6,0 2,0 4,-1 6,-2 2,0 4,0 6,-1 2,0 4,0 6,-1 2,0 4,0 6,-1 2,0 4,0 6,-1 2,0 4,-1 6,-2 2,-1 4,-1 6,-2 2,-1 4,-1 5,-1 2,-1 4,-1 6,-2 2,-1 4,-2 6,-2 2,-1 4,-1 6,-2 2,0 3,-2 5,-3 2,-1 3,-1 5,-2 2,-1 4,-2 5,-2 2,0 4,1 5,1 2,1 3,2 4,2 1,2 1,4 0,5 0,2 -1,4 -2,6 0,2 0,4 -1,6 0,2 -1,4 -1,6 -1,2 -1,4 -2,6 0,2 -1,4 -1,6 0,2 -1,4 -1,6 0,2 -1,4 -2,6 0,2 0,4 0,6 -1,2 -1,4 -1,6 -1,2 -2,4 -2,6 0,2 -1,4 -1,6 -1,1 -2,3 -2,5 0,2 0,4 -1,6 0,2 -1,4 -1,6 -1,2 -1,4 -1,6 -1,2 -2,4 -2,6 0,2 -1,4 -2,6 -2,1 -3,2 -5,3 -2,1 -4,3 -6,3 -2,0 -4,0 -6,1 -2,-1 -4,-1 -5,-1 -2,0 -4,-1 -6,-1 -2,0 -4,0 -6,1 -2,0 -4,0 -6,1 -2,0 -4,0 -6,1 -2,0 -4,-1 -6,0 -2,-1 -4,0 -6,1 -2,0 -4,0 -6,1 -2,0 -4,0 -6,1 -2,0 -4,0 -6,1 -2,0 -3,0 -5,1 -2,0 -4,0 -6,1 -2,0 -4,0 -6,1 -2,0 -4,0 -6,1 -2,0 -4,0 -6,1 -2,0 -4,0 -6,1 -2,0 -4,0 -6,1 -2,0 -4,0 -6,1 -2,0 -4,0 -6,1 -2,0 -4,0 -6,1 -2,0 -4,0 -6,1 -2,0 -4,0 -6,1 -2,0 -3,0 -5,1 -2,0 -4,0 -6,1 -2,0 -4,0 -6,1 -2,0 -4,0 -6,1 -2,0 -4,0 -6,1 -2,0 -4,0 -6,1 -2,0 -4,0 -6,1 -2,0 -4,0 -6,1 -2,0 -4,0 -6,1 -2,0 -4,0 -6,1 -2,0 -4,0 -6,1 -2,0 -3,0 -5,1 -2,0 -4,0 -6,1 -2,0 -4,0 -6,1 -2,0 -4,0 -6,1 -2,0 -4,1 -6,1 -2,0 -4,0 -6,1 -2,0 -4,0 -6,1 -2,0 -4,1 -6,1 -2,0 -5,1 -7,1 -2,0 -5,1 -7,1 -1,0 -3,0 -5,0z"/>
  <path class="fil0" d="M1679 1032c0,-2 -1,-4 -1,-6 0,-2 1,-4 0,-6 0,-2 -1,-4 -2,-5 0,-2 0,-4 0,-6 -1,-2 -1,-4 -2,-6 0,-1 -1,-3 -2,-5 0,-2 0,-4 -1,-6 -1,-2 -2,-4 -3,-5 -1,-1 -2,-3 -3,-5 -1,-1 -2,-3 -3,-4 -1,-2 -1,-4 -3,-4 -1,-2 -2,-3 -4,-4 -1,-2 -3,-3 -4,-3 -1,-2 -3,-3 -4,-3 -2,-2 -3,-3 -5,-3 -1,-1 -3,-3 -5,-3 -1,-1 -3,-2 -5,-2 -2,-1 -3,-2 -5,-2 -2,0 -4,-1 -6,-1 -2,0 -4,0 -6,0 -2,0 -4,-1 -6,-1 -2,0 -4,-1 -6,0 -2,0 -4,0 -6,0 -1,0 -2,0 -3,0 -2,0 -4,1 -6,1 -1,1 -3,2 -4,4 -2,1 -3,2 -4,4 -1,2 -1,4 -1,6 0,2 0,4 0,6 0,3 -1,3 -1,6 0,3 1,3 1,6 0,2 0,4 0,6 0,2 0,4 0,6 0,2 0,4 0,6 0,2 0,4 0,7 0,2 0,4 0,6 0,2 0,4 0,6 0,2 0,4 0,6 0,2 0,4 0,6 0,2 0,4 0,6 0,3 -1,3 -1,6 0,3 1,3 1,6 0,2 0,4 0,6 0,2 0,4 0,6 0,4 -1,4 -1,7 0,3 1,3 1,6 0,2 0,4 0,6 0,2 0,4 0,6 0,2 0,4 0,6 0,2 0,4 0,6 0,2 0,4 0,6 0,2 0,4 0,6 0,2 0,4 0,6 0,2 0,4 0,6 0,3 -1,3 -1,7 0,3 1,3 1,6 0,2 0,4 1,6 1,1 2,3 3,4 2,2 4,2 5,2 2,1 4,2 6,1 2,0 2,-1 3,-1 2,0 4,1 6,0 2,-1 4,-1 6,-1 2,0 4,-1 6,-2 2,0 4,-1 6,-1 2,-1 4,-1 6,-2 2,-1 3,-2 5,-3 2,-1 4,-1 6,-2 1,-1 3,-3 5,-4 1,-1 2,-3 4,-4 1,-1 3,-2 5,-4 1,-1 2,-3 3,-5 2,-1 3,-3 4,-5 1,-1 2,-3 3,-5 1,-1 3,-3 4,-4 1,-2 1,-4 2,-6 0,-2 2,-4 2,-6 1,-1 2,-3 3,-5 0,-2 1,-4 2,-6 0,-2 0,-4 0,-6 1,-2 2,-4 2,-6 0,-2 0,-4 1,-6 0,-2 1,-4 1,-6 0,-2 0,-4 0,-6 0,-2 0,-4 0,-6 0,-2 0,-4 0,-6zm-86 -173c2,0 4,0 6,0 2,0 4,1 6,0 2,0 4,-1 6,-1 2,1 4,1 6,0 2,1 4,1 6,1 2,1 4,1 6,1 2,0 4,1 6,1 2,1 4,1 6,1 2,1 4,0 6,1 2,0 4,1 6,1 2,1 4,2 6,2 2,0 4,0 6,1 2,1 4,1 6,1 2,1 3,2 5,2 2,0 4,1 6,1 2,1 4,2 5,2 2,1 4,2 6,2 2,1 3,2 5,2 2,1 4,2 5,3 2,1 4,2 6,2 2,1 3,2 5,3 2,1 3,2 5,3 1,1 3,2 4,3 2,2 4,3 5,3 2,1 3,3 5,3 1,1 3,2 4,4 2,1 3,3 4,4 2,1 3,2 5,3 1,1 2,3 3,5 2,1 2,3 4,4 1,1 3,2 4,4 1,2 2,3 3,5 2,2 2,4 3,5 1,1 2,3 3,5 1,2 2,3 3,5 1,2 2,4 3,5 1,2 2,4 3,5 0,2 1,4 2,5 1,2 1,4 2,6 1,2 1,4 1,6 1,2 2,4 2,6 1,2 1,4 2,6 0,2 1,3 2,5 0,2 1,4 1,6 1,2 0,4 1,6 0,2 1,4 1,6 1,2 0,4 1,6 0,2 0,4 0,6 0,2 1,4 1,6 0,2 0,4 1,6 0,2 -1,4 -1,6 1,2 0,4 0,6 0,2 1,4 1,6 -1,2 0,4 0,6 0,2 -1,4 -1,6 0,2 0,4 0,6 0,2 -1,4 -1,6 0,2 -1,4 -1,6 0,2 0,4 0,6 -1,2 -1,4 -2,6 0,2 0,4 -1,6 0,2 -1,4 -2,6 0,2 -1,4 -1,5 -1,2 -1,4 -2,6 0,2 -1,4 -2,6 0,2 -1,4 -2,6 -1,1 -1,3 -2,5 -1,2 -2,4 -3,5 -1,2 -1,4 -2,6 -1,2 -2,4 -3,5 -1,2 -2,4 -3,5 -1,2 -2,4 -3,6 -1,1 -2,3 -3,5 -1,1 -2,3 -4,5 -1,1 -3,2 -4,4 -1,2 -2,4 -3,5 -1,2 -3,3 -4,4 -2,2 -3,3 -5,4 -1,2 -3,3 -4,5 -1,1 -3,3 -4,4 -2,1 -3,2 -5,4 -2,1 -3,2 -5,3 -1,2 -3,2 -5,4 -1,1 -3,2 -5,3 -1,1 -3,2 -5,3 -1,1 -3,2 -5,3 -1,1 -3,2 -5,3 -2,1 -4,2 -5,3 -2,1 -4,1 -6,2 -2,1 -4,2 -6,2 -1,1 -3,2 -5,3 -2,0 -4,1 -6,2 -2,0 -4,0 -6,1 -2,1 -3,1 -5,2 -2,0 -4,1 -6,2 -2,0 -4,0 -6,1 -2,0 -4,0 -6,1 -2,0 -4,0 -6,0 -2,1 -4,1 -6,1 -2,0 -4,0 -6,1 -2,0 -4,0 -6,1 -2,0 -4,0 -6,0 -2,0 -4,0 -6,0 -2,0 -4,1 -6,1 -2,0 -4,0 -6,0 -2,0 -4,0 -5,1 -2,1 -4,2 -5,3 -2,1 -3,3 -4,5 -1,1 -2,3 -2,6 0,3 1,3 1,6 0,2 0,4 0,6 0,2 0,4 0,6 0,2 0,4 0,6 0,2 0,4 0,6 0,2 0,4 0,7 0,2 0,4 0,6 0,2 0,4 0,6 0,2 0,4 0,6 0,2 0,4 0,6 0,2 0,4 0,6 0,2 0,4 0,7 0,3 -1,3 -1,6 0,3 1,3 1,6 0,2 0,4 0,6 0,2 0,4 0,6 0,2 0,4 0,6 0,2 0,4 0,7 0,2 0,4 0,6 0,2 1,4 1,6 0,2 0,4 0,6 0,2 0,4 0,6 0,3 0,5 1,7 0,2 1,4 1,6 0,2 1,4 1,6 1,2 1,4 2,5 0,2 1,4 2,6 0,2 2,3 3,4 1,2 1,4 2,5 1,1 2,3 2,5 0,1 0,3 -1,5 -1,2 -2,3 -4,4 -1,0 -3,1 -5,1 -2,0 -4,0 -6,0 -2,0 -4,0 -6,0 -2,0 -4,0 -6,0 -2,0 -4,0 -6,0 -2,0 -4,0 -6,0 -2,0 -4,0 -6,0 -2,0 -4,0 -6,0 -2,0 -4,0 -6,0 -2,0 -4,0 -6,1 -2,0 -4,0 -6,1 -2,0 -4,0 -6,1 -2,0 -3,0 -5,0 -2,0 -4,0 -6,1 -2,0 -4,0 -6,1 -2,0 -4,0 -6,1 -2,0 -4,0 -6,1 -2,0 -4,0 -6,1 -2,0 -4,1 -6,1 -2,0 -4,-1 -6,0 -2,0 -4,0 -6,1 -2,0 -4,0 -6,1 -2,0 -4,0 -6,0 -1,-1 -2,-3 -3,-3 -1,-2 -1,-4 -1,-5 0,-2 0,-4 1,-6 1,-1 3,-3 4,-5 0,-2 1,-3 2,-5 1,-2 2,-4 2,-6 1,-2 1,-4 1,-6 1,-2 1,-4 2,-6 0,-2 1,-4 1,-6 0,-2 1,-4 1,-7 0,-2 0,-4 0,-6 1,-2 1,-4 1,-6 0,-2 -1,-4 -1,-6 0,-2 1,-4 1,-6 0,-2 0,-4 0,-7 0,-2 0,-4 0,-6 0,-2 0,-4 0,-6 0,-2 0,-4 0,-6 0,-2 0,-4 0,-6 0,-2 0,-3 0,-5 0,-2 0,-4 0,-6 0,-2 0,-4 0,-6 0,-2 0,-4 0,-6 0,-2 0,-4 0,-6 0,-2 0,-4 0,-6 0,-3 -1,-3 -1,-6 0,-3 1,-3 1,-6 0,-2 0,-4 0,-6 0,-2 0,-4 0,-6 0,-2 0,-4 0,-6 0,-2 0,-4 0,-6 0,-2 0,-4 0,-6 0,-2 0,-4 0,-6 0,-2 0,-4 0,-6 0,-2 0,-4 0,-6 0,-2 0,-4 0,-6 0,-2 0,-4 0,-6 0,-2 0,-4 0,-6 0,-2 0,-4 0,-6 0,-2 0,-4 0,-6 0,-2 0,-4 0,-6 0,-2 0,-4 0,-6 0,-2 0,-4 0,-6 0,-2 0,-4 0,-6 0,-2 0,-4 0,-6 0,-2 0,-4 0,-6 0,-2 0,-4 0,-6 0,-2 0,-4 0,-6 0,-2 0,-4 0,-6 0,-2 0,-4 0,-6 0,-2 0,-4 0,-6 0,-2 0,-4 0,-6 0,-2 0,-4 0,-6 0,-2 0,-4 0,-6 0,-2 0,-4 0,-6 0,-2 0,-4 0,-6 0,-2 0,-4 0,-6 0,-2 0,-4 0,-6 0,-2 0,-4 0,-6 0,-2 0,-4 0,-6 0,-2 0,-4 0,-6 0,-2 0,-4 0,-6 0,-2 0,-4 0,-6 0,-2 0,-4 0,-6 0,-2 0,-4 0,-6 0,-2 0,-4 0,-6 0,-2 0,-4 0,-6 0,-2 0,-4 0,-6 0,-2 0,-4 0,-6 0,-2 0,-4 0,-6 0,-2 0,-4 0,-6 0,-2 0,-3 0,-5 0,-2 0,-4 0,-6 0,-2 0,-4 0,-6 0,-2 0,-4 0,-6 0,-2 0,-4 0,-6 0,-2 0,-4 0,-6 0,-2 0,-4 0,-6 0,-2 0,-4 0,-6 0,-2 0,-4 0,-6 0,-2 0,-4 0,-6 0,-2 0,-4 0,-6 0,-2 0,-4 0,-6 0,-2 0,-4 0,-6 0,-2 0,-4 0,-6 0,-2 0,-4 0,-6 0,-2 0,-4 0,-7 0,-2 0,-4 0,-6 0,-2 0,-4 0,-6 0,-2 -1,-4 -1,-6 0,-2 0,-4 0,-6 -1,-2 -1,-4 -1,-6 0,-3 -1,-5 -1,-6 -1,-3 -1,-5 -2,-6 0,-2 0,-4 -1,-6 -1,-2 -1,-4 -2,-5 -1,-2 -1,-3 -2,-5 -1,-2 -3,-3 -4,-4 -1,-2 -1,-4 -1,-6 0,-1 0,-3 1,-5 1,-1 2,-3 3,-4 2,-1 4,-1 6,-1 2,0 4,0 6,-1 3,0 3,1 6,0 3,0 3,-1 6,-1 3,0 3,1 6,0 3,0 3,-1 6,-1 2,0 4,0 6,-1 2,0 4,0 6,-1 3,0 3,1 6,0 3,0 3,-1 6,-1 2,0 4,0 6,-1 2,0 4,0 6,-1 2,0 4,0 6,-1 2,0 4,0 6,0 3,0 3,1 6,0 3,0 3,-1 6,-1 2,0 4,0 6,0 2,0 4,0 6,0 2,0 4,0 6,0 2,0 4,0 6,0 2,0 4,0 6,0 2,0 4,0 6,0 2,0 4,0 6,0 1,0 0,1 0,1 2,0 4,-1 6,-1z"/>
  <path class="fil0" d="M1881 836c2,1 4,2 6,2 2,1 4,1 6,2 2,1 4,1 6,2 2,1 3,2 5,3 2,1 4,2 5,3 2,2 4,3 5,4 2,2 3,3 4,5 2,2 3,3 4,5 1,2 2,4 2,6 1,1 2,3 3,5 0,2 1,4 1,6 1,2 2,4 2,6 0,2 0,4 0,6 0,2 0,4 0,7 0,1 -1,3 -1,5 -1,2 -1,4 -2,6 0,2 0,4 -1,6 0,2 -1,4 -2,6 -1,2 -1,4 -2,6 -1,1 -2,3 -3,5 -1,2 -2,3 -3,5 -1,2 -2,4 -3,6 -1,1 -2,3 -3,5 -1,1 -3,3 -4,5 -1,1 -3,3 -4,4 -1,2 -2,3 -4,5 -1,1 -3,3 -4,4 -2,1 -3,3 -5,4 -1,2 -3,3 -4,4 -2,2 -3,3 -5,5 -1,1 -3,2 -5,3 -1,1 -3,2 -5,4 -1,1 -3,2 -4,3 -2,1 -4,2 -6,3 -1,1 -3,2 -5,3 -2,1 -5,1 -6,-1 -3,-3 -2,-3 -4,-5 -3,-2 -3,-3 -5,-4 -1,-2 -3,-4 -4,-5 -1,-1 -2,-2 -1,-4 0,-1 1,-2 2,-3 2,-1 4,-2 5,-3 2,-1 4,-2 5,-3 2,-1 4,-2 5,-4 2,-1 3,-3 4,-4 2,-1 4,-2 5,-4 2,-1 2,-3 1,-5 0,-1 -1,-3 -3,-4 -2,0 -4,0 -6,-1 -1,-1 -3,-2 -5,-3 -1,-1 -3,-1 -5,-3 -1,-1 -3,-2 -4,-3 -2,-2 -3,-3 -5,-4 -1,-2 -2,-3 -3,-5 -1,-2 -2,-3 -3,-5 -1,-2 -2,-3 -3,-5 -1,-2 -2,-4 -2,-5 -1,-2 -1,-4 -2,-6 0,-2 0,-4 0,-6 -1,-2 0,-4 0,-6 0,-2 -1,-4 -1,-6 1,-2 1,-4 2,-6 0,-2 1,-4 2,-6 0,-2 1,-3 2,-5 1,-2 1,-4 2,-6 1,-2 3,-3 4,-5 2,-1 3,-3 4,-5 1,-1 3,-2 5,-3 2,-2 3,-3 5,-4 2,-1 3,-2 5,-3 2,-1 4,-1 6,-2 2,-1 4,-1 6,-2 2,0 4,-1 6,-1 2,-1 4,-1 6,-1 2,0 4,0 6,0z"/>
  <path class="fil0" d="M1971 1293c1,-2 2,-3 4,-4 2,-1 4,-2 6,-2 2,0 4,2 5,3 2,1 3,2 5,3 2,2 3,3 4,5 2,1 4,1 5,3 2,1 3,2 5,3 2,1 4,2 5,3 2,1 4,1 5,2 2,1 4,2 6,3 2,1 3,2 5,3 2,0 4,1 6,2 1,0 3,1 5,1 2,1 4,1 6,2 2,0 4,1 5,1 2,1 4,1 6,1 2,1 4,1 6,1 2,1 4,1 6,1 2,0 4,0 6,0 2,0 4,0 6,0 2,0 3,0 5,0 2,-1 4,-1 6,-1 2,0 4,0 6,0 2,0 4,-1 6,-1 2,-1 4,-1 6,-1 2,-1 4,-2 5,-2 2,-1 4,-2 6,-3 2,0 4,-1 5,-2 2,-1 4,-2 5,-3 2,-1 4,-2 5,-3 2,-1 4,-2 5,-3 2,-2 3,-3 4,-5 2,-1 3,-2 5,-4 1,-1 2,-3 3,-4 2,-2 3,-3 4,-5 1,-1 2,-3 3,-5 1,-2 2,-3 3,-5 1,-2 1,-4 2,-5 1,-2 1,-4 2,-6 1,-2 2,-4 2,-5 1,-2 1,-4 1,-6 1,-2 1,-4 1,-6 0,-2 1,-4 1,-6 0,-2 0,-4 0,-6 0,-2 0,-4 0,-6 0,-2 0,-4 0,-6 -1,-2 -1,-4 -2,-6 0,-2 -1,-3 -2,-5 0,-2 -1,-4 -2,-6 0,-2 -1,-4 -2,-5 -1,-2 -2,-4 -3,-6 -1,-1 -2,-3 -4,-4 -1,-2 -2,-4 -3,-5 -1,-2 -2,-4 -3,-5 -2,-2 -4,-3 -5,-4 -1,-2 -2,-3 -4,-5 -1,-1 -3,-2 -5,-3 -1,-2 -3,-3 -4,-4 -2,-1 -3,-3 -5,-4 -1,-1 -3,-2 -4,-4 -2,-1 -4,-2 -6,-3 -1,-1 -2,-3 -4,-4 -2,-1 -3,-2 -5,-4 -2,-1 -3,-2 -5,-3 -2,-1 -3,-2 -5,-3 -2,-1 -3,-2 -5,-4 -1,-1 -3,-2 -5,-3 -2,-1 -3,-2 -5,-3 -2,-1 -3,-2 -5,-3 -2,-1 -3,-2 -5,-3 -2,-2 -3,-3 -5,-4 -1,-1 -3,-3 -5,-4 -1,-1 -3,-2 -5,-3 -1,-1 -3,-2 -4,-4 -2,-1 -3,-3 -5,-4 -1,-1 -3,-2 -4,-3 -2,-2 -3,-3 -5,-4 -1,-2 -3,-2 -5,-4 -1,-1 -2,-3 -4,-4 -1,-2 -3,-3 -4,-4 -2,-2 -3,-3 -5,-5 -1,-1 -2,-3 -3,-4 -2,-2 -3,-3 -4,-5 -2,-1 -3,-2 -4,-4 -2,-2 -3,-3 -5,-4 -1,-2 -2,-4 -3,-5 -1,-2 -2,-4 -3,-5 -1,-2 -3,-4 -4,-5 -1,-2 -1,-4 -2,-6 -1,-1 -2,-3 -3,-5 -1,-2 -2,-3 -3,-5 -1,-2 -1,-4 -2,-6 -1,-2 -2,-3 -3,-5 0,-2 -1,-4 -2,-6 0,-2 -1,-4 -2,-5 0,-2 0,-5 -1,-6 0,-2 -1,-4 -1,-6 -1,-2 -2,-4 -2,-6 0,-2 0,-4 -1,-6 0,-2 0,-4 0,-6 -1,-2 -1,-4 -1,-6 -1,-2 -1,-4 -1,-6 0,-2 0,-4 0,-6 0,-2 0,-4 0,-6 0,-2 0,-4 0,-6 0,-2 -1,-4 -1,-6 0,-2 1,-4 1,-6 0,-2 0,-4 1,-6 0,-2 -1,-4 0,-6 0,-2 0,-3 1,-5 0,-2 1,-4 1,-6 0,-2 0,-4 1,-6 0,-2 1,-4 1,-6 1,-2 1,-4 1,-6 1,-2 2,-4 2,-5 1,-2 2,-4 3,-6 0,-2 1,-4 2,-5 1,-2 1,-4 2,-6 1,-2 2,-3 3,-5 1,-2 2,-4 3,-5 1,-2 2,-4 3,-5 2,-2 2,-4 3,-5 2,-2 3,-4 4,-5 1,-2 3,-3 4,-4 2,-2 3,-3 4,-5 2,-1 3,-3 5,-4 1,-1 2,-3 4,-4 1,-1 3,-2 5,-3 1,-2 3,-3 5,-4 1,-1 3,-2 5,-3 1,-1 3,-2 5,-3 1,-1 3,-2 5,-3 2,-1 4,-2 5,-3 2,0 4,-1 6,-2 2,-1 4,-1 5,-2 2,-1 4,-2 6,-2 2,-1 4,-1 6,-1 2,-1 4,-1 6,-2 2,0 3,-1 5,-2 2,0 4,0 6,0 2,-1 4,-1 6,-1 2,0 4,-1 6,-1 2,0 4,0 6,0 2,0 4,0 6,-1 2,0 4,0 6,0 2,0 4,0 6,0 2,0 4,0 6,0 2,0 4,0 6,0 2,0 3,0 5,0 2,0 4,0 6,1 2,0 4,0 6,1 2,0 4,0 6,0 2,0 4,1 6,1 2,1 3,1 5,1 2,1 4,1 6,1 2,0 4,1 6,1 2,1 4,1 6,1 2,0 4,0 6,0 2,1 4,1 5,1 2,1 4,0 6,0 2,1 4,1 6,1 2,0 4,0 6,0 2,0 4,-1 6,-1 2,-1 4,-1 5,-2 2,-1 3,-2 5,-2 2,0 4,0 5,1 2,0 3,1 4,3 1,1 1,3 1,5 0,3 0,3 1,6 0,3 1,3 1,6 0,2 0,4 0,6 0,2 0,4 0,6 1,3 1,3 1,6 0,2 0,4 0,6 1,3 1,3 1,6 0,2 0,4 0,6 1,3 0,3 0,6 0,3 1,3 1,6 0,2 0,4 0,6 0,2 0,4 0,6 1,2 1,4 2,6 0,2 0,4 0,6 0,2 0,3 0,5 0,3 1,3 1,6 0,3 -1,3 -1,6 1,2 0,4 -1,6 -1,2 -2,3 -3,4 -2,1 -4,2 -6,2 -2,-1 -4,-2 -5,-3 -2,-2 -3,-3 -5,-4 -1,-2 -3,-3 -4,-4 -2,-1 -4,-2 -5,-3 -2,-2 -4,-3 -5,-4 -2,-1 -4,-2 -6,-3 -1,-1 -3,-2 -5,-3 -2,-1 -3,-2 -5,-3 -2,-1 -4,-1 -6,-2 -2,-1 -3,-1 -5,-2 -2,-1 -4,-2 -6,-2 -2,-1 -4,-1 -6,-2 -2,0 -4,-1 -6,-1 -2,-1 -4,-1 -6,-1 -1,-1 -3,-1 -5,-1 -2,-1 -4,-2 -6,-2 -2,0 -4,0 -6,0 -2,0 -4,0 -6,0 -2,0 -4,1 -6,1 -2,0 -4,-1 -6,0 -2,0 -4,1 -6,2 -2,0 -4,0 -6,1 -2,1 -4,2 -5,3 -2,1 -4,1 -6,2 -2,1 -3,3 -4,4 -2,1 -4,3 -5,4 -1,1 -3,3 -4,5 -1,1 -2,3 -3,5 -1,1 -2,3 -3,5 0,2 -1,4 -2,6 0,2 -1,4 -1,6 0,2 -1,4 -1,6 0,2 0,4 0,6 0,2 -1,4 -1,6 0,2 1,4 1,6 0,2 0,4 0,6 1,2 2,3 2,5 1,2 1,4 2,6 1,2 1,4 2,5 1,2 2,4 3,6 1,2 1,4 3,5 1,2 3,3 4,5 1,1 2,3 3,4 2,2 3,3 4,5 2,1 3,3 4,5 1,1 3,2 4,4 2,1 3,2 5,4 1,1 3,2 4,4 2,1 3,2 5,3 1,2 3,3 5,4 1,1 3,2 5,3 1,1 3,2 4,4 2,1 4,2 5,3 2,2 4,3 5,4 2,1 3,3 5,4 1,1 3,2 5,3 2,1 3,2 5,4 1,1 3,2 5,3 1,1 2,3 4,4 2,1 3,2 5,4 1,1 3,2 5,3 1,2 3,2 5,4 1,1 3,2 4,4 2,1 3,2 5,3 1,1 3,2 4,4 2,2 4,2 5,4 2,1 3,3 4,4 2,1 4,2 5,4 1,1 3,2 4,4 1,1 3,2 4,4 2,2 3,3 5,5 1,1 2,3 3,4 2,2 3,3 4,5 2,1 3,3 4,4 1,2 2,4 3,6 1,1 3,2 4,4 1,2 2,4 3,5 1,2 3,4 4,5 1,2 1,4 2,6 1,1 3,3 3,5 1,1 2,3 3,5 1,2 1,4 2,6 1,2 2,3 3,5 0,2 0,4 1,6 1,2 1,4 2,6 0,2 1,4 1,5 1,2 2,4 2,6 1,2 1,4 1,6 1,2 1,4 1,6 1,2 2,4 2,6 0,2 0,4 1,6 0,2 0,4 0,6 0,2 1,4 1,6 0,2 -1,4 -1,6 0,2 0,4 0,6 0,2 0,4 0,6 0,2 1,4 1,6 0,2 -1,4 -2,6 0,2 1,4 0,6 0,2 0,4 0,6 -1,1 -1,3 -2,5 0,2 -1,4 -1,6 0,2 -1,4 -1,6 -1,2 -1,4 -1,6 -1,2 -2,4 -3,6 0,1 -1,3 -2,5 0,2 -1,4 -2,6 0,2 -1,3 -2,5 -1,2 -2,4 -2,6 -1,2 -1,4 -2,6 -1,1 -2,3 -3,5 -1,1 -3,3 -4,5 -1,1 -1,3 -2,5 -1,2 -3,3 -4,5 -1,1 -2,3 -4,5 -1,1 -2,3 -3,5 -1,1 -3,3 -4,4 -1,2 -3,3 -4,5 -1,1 -2,3 -4,4 -1,2 -3,2 -5,4 -1,1 -2,3 -4,4 -1,1 -3,3 -4,4 -2,2 -4,2 -5,4 -2,1 -3,2 -5,3 -1,1 -3,2 -5,3 -2,2 -3,3 -5,4 -2,1 -3,2 -5,3 -2,1 -4,1 -6,2 -1,1 -3,2 -5,3 -2,1 -4,1 -6,2 -1,1 -3,2 -5,3 -2,0 -4,1 -6,2 -1,0 -3,1 -5,2 -2,0 -4,0 -6,1 -2,0 -4,1 -6,1 -2,0 -4,1 -6,2 -2,0 -4,0 -6,0 -2,0 -4,1 -6,1 -2,0 -4,0 -6,1 -2,0 -4,0 -6,0 -2,0 -4,1 -6,1 -2,0 -4,0 -6,0 -2,0 -4,-1 -6,-1 -2,0 -4,0 -6,0 -2,0 -4,0 -6,-1 -2,0 -4,1 -6,1 -2,-1 -4,-1 -6,-1 -2,0 -4,-1 -6,-1 -2,0 -4,0 -6,0 -2,-1 -4,-1 -6,-1 -2,0 -3,-1 -5,-2 -2,0 -4,0 -6,0 -2,0 -4,-1 -6,-1 -2,0 -4,0 -6,0 -2,0 -4,0 -6,0 -2,0 -5,0 -7,0 -2,0 -4,0 -6,0 -2,0 -3,1 -5,1 -2,1 -4,1 -6,1 -2,1 -4,1 -6,2 -2,0 -4,1 -6,1 -2,0 -4,0 -6,-1 -1,-1 -3,-2 -4,-4 0,-1 -2,-3 -2,-5 0,-3 1,-3 0,-6 0,-3 -1,-3 -1,-6 0,-3 0,-3 -1,-6 0,-2 0,-4 0,-6 0,-2 0,-4 0,-6 0,-3 -1,-3 -1,-6 0,-2 0,-4 0,-6 0,-3 -1,-3 -2,-6 0,-2 0,-4 0,-6 0,-3 0,-3 -1,-6 0,-2 0,-4 0,-6 0,-2 0,-4 0,-6 -1,-3 -1,-3 -1,-6 -1,-3 0,-3 -1,-6 0,-2 0,-4 0,-6 -1,-3 -1,-3 -1,-6 0,-3 0,-3 -1,-6 0,-2 0,-4 0,-6 0,-2 0,-3 1,-5z"/>
  <path class="fil0" d="M2713 1167c-2,1 -4,2 -6,3 -1,2 -4,2 -5,3 -2,1 -4,3 -6,4 -1,1 -3,3 -5,4 -1,1 -4,1 -5,2 -2,2 -4,3 -6,4 -2,1 -3,2 -5,3 -2,1 -4,2 -6,3 -2,0 -3,2 -5,3 -1,1 -2,3 -3,5 -1,2 0,4 0,6 0,2 -1,2 -1,5 0,3 1,3 1,6 0,2 0,3 0,5 0,3 -1,3 -1,6 0,2 0,4 0,6 0,2 0,3 0,5 0,2 0,4 0,6 0,3 1,3 1,6 0,3 -1,3 -1,6 0,2 0,3 0,5 0,2 0,4 0,6 0,2 0,4 0,6 0,2 0,4 0,6 0,2 0,4 0,6 0,2 0,3 0,5 0,2 0,4 0,6 0,3 1,3 1,6 0,3 -1,3 -1,6 0,2 0,4 1,6 1,2 2,3 3,5 2,1 4,2 6,3 1,0 3,1 5,1 2,0 4,0 6,0 2,0 4,0 6,0 2,0 5,0 7,0 2,0 4,-1 6,-1 2,-1 4,-1 5,-1 2,-1 4,-2 6,-2 2,-1 4,-1 6,-2 2,-1 3,-3 5,-4 2,-1 4,-2 5,-3 2,-1 4,-2 5,-3 2,-2 3,-3 4,-5 2,-1 3,-3 4,-5 1,-1 3,-2 4,-4 1,-2 3,-3 4,-5 1,-2 2,-4 3,-5 0,-1 1,-3 2,-5 1,-2 1,-4 2,-6 0,-2 1,-4 2,-6 0,-2 1,-3 2,-5 0,-2 0,-4 0,-6 1,-2 1,-4 2,-6 0,-2 0,-4 0,-6 1,-2 1,-4 1,-6 0,-2 0,-4 0,-7 0,-2 0,-4 0,-6 0,-2 -1,-4 -1,-6 -1,-2 -1,-4 -1,-6 -1,-2 0,-4 -1,-6 0,-2 -1,-4 -2,-6 0,-2 -1,-3 -2,-5 0,-2 -1,-4 -2,-6 -1,-2 -2,-4 -3,-5 -1,-2 -2,-4 -3,-6 -1,-1 -2,-3 -3,-5 -2,-1 -3,-3 -4,-4 -1,-2 -3,-3 -5,-4 -1,-2 -3,-3 -5,-4 -2,-1 -4,-1 -6,-1 -2,1 -4,2 -6,3 -2,1 -4,2 -5,3zm36 -180c0,-2 0,-4 0,-6 -1,-2 0,-4 -1,-6 0,-2 0,-4 -1,-6 0,-2 -2,-3 -2,-5 -1,-2 -1,-4 -2,-6 -1,-2 -2,-3 -3,-5 -1,-2 -2,-3 -4,-5 -1,-1 -2,-3 -3,-4 -2,-2 -4,-3 -5,-4 -2,-1 -3,-2 -5,-3 -2,-1 -4,-1 -6,-2 -2,-1 -4,-2 -5,-2 -2,-1 -4,-1 -6,-1 -2,-1 -4,-1 -6,-1 -2,0 -4,0 -6,0 0,0 -3,-1 -6,-1 -2,0 -3,0 -5,0 -2,0 -4,0 -6,0 -1,0 -3,1 -5,2 -2,0 -4,1 -6,2 -1,2 -3,3 -3,5 -1,2 -1,4 -1,6 0,2 0,4 0,7 0,2 0,4 0,6 0,2 0,4 0,6 0,2 0,4 0,6 0,2 0,4 0,6 0,3 1,3 1,6 0,3 -1,3 -1,6 0,2 0,4 0,6 0,2 0,4 0,6 0,2 0,4 0,6 0,2 0,4 0,6 0,2 0,4 0,6 0,2 0,4 0,6 0,2 0,4 0,6 0,2 0,4 0,6 0,2 0,4 0,6 0,2 0,4 0,6 0,2 0,4 0,6 0,3 1,3 1,6 0,3 -1,3 -1,6 0,2 0,4 0,6 0,2 0,4 0,6 0,2 1,4 2,5 0,2 1,3 2,5 1,1 2,2 3,3 2,1 3,2 5,2 2,1 3,1 5,1 2,0 3,-2 5,-2 2,-2 2,-2 5,-4 3,-1 3,-1 6,-3 2,-1 2,-2 5,-3 2,-2 3,-2 5,-4 2,-1 4,-2 5,-3 2,-1 3,-2 5,-3 1,-2 3,-3 4,-4 2,-2 3,-3 5,-4 1,-2 2,-4 3,-5 1,-2 3,-3 4,-5 1,-1 2,-3 3,-4 2,-2 2,-4 3,-6 1,-1 2,-3 3,-5 1,-2 1,-4 2,-6 1,-1 1,-3 2,-5 1,-2 1,-4 2,-6 0,-2 1,-3 1,-5 1,-2 1,-4 1,-6 1,-2 1,-4 1,-6 0,-2 0,-4 1,-6 0,-2 0,-4 0,-6 0,-2 -1,-4 -1,-6zm-222 411c-2,-1 -3,-2 -4,-4 -1,-2 -1,-4 -1,-5 0,-2 1,-4 2,-5 1,-2 1,-4 2,-6 1,-2 3,-3 4,-5 1,-2 1,-4 2,-6 0,-2 0,-4 1,-6 0,-2 1,-4 2,-6 0,-2 0,-4 1,-6 0,-2 0,-4 0,-7 1,-2 0,-4 0,-6 0,-2 1,-4 1,-6 0,-2 0,-4 0,-6 0,-2 0,-4 0,-6 0,-2 0,-4 0,-7 0,-2 0,-4 0,-6 0,-3 1,-3 1,-6 0,-2 0,-4 0,-6 0,-3 -1,-3 -1,-6 0,-2 0,-3 0,-5 0,-3 1,-3 1,-6 0,-3 -1,-3 -1,-6 0,-3 1,-3 1,-6 0,-3 -1,-3 -1,-6 0,-2 0,-4 0,-6 0,-2 0,-4 0,-6 0,-2 0,-4 0,-6 0,-2 0,-4 0,-6 0,-3 1,-3 1,-6 0,-2 0,-4 0,-6 0,-2 0,-4 0,-6 0,-3 -1,-3 -1,-6 0,-2 0,-4 0,-6 0,-2 0,-4 0,-6 0,-2 0,-4 0,-6 0,-3 1,-3 1,-6 0,-3 -1,-3 -1,-6 0,-2 0,-4 0,-6 0,-2 0,-4 0,-6 0,-3 1,-3 1,-6 0,-3 -1,-3 -1,-6 0,-2 0,-4 0,-6 0,-3 1,-3 1,-6 0,-3 -1,-3 -1,-6 0,-2 0,-4 0,-6 0,-2 0,-4 0,-6 0,-3 1,-3 1,-6 0,-3 -1,-3 -1,-6 0,-3 1,-3 1,-6 0,-3 -1,-3 -1,-6 0,-2 0,-4 0,-6 0,-3 1,-3 1,-6 0,-3 -1,-3 -1,-6 0,-2 0,-4 0,-6 0,-2 0,-4 0,-6 0,-2 0,-4 0,-6 0,-2 0,-4 0,-6 0,-2 0,-4 0,-6 0,-2 0,-4 0,-6 0,-2 0,-4 0,-6 0,-3 1,-3 1,-6 0,-2 0,-4 0,-6 0,-2 0,-4 0,-6 0,-3 -1,-3 -1,-6 0,-2 0,-4 0,-6 0,-3 1,-3 1,-6 0,-3 -1,-3 -1,-6 0,-2 0,-4 0,-6 0,-2 0,-4 0,-6 0,-2 0,-4 0,-6 0,-2 0,-4 0,-6 0,-2 0,-3 0,-5 0,-2 0,-4 0,-6 0,-2 0,-4 0,-6 0,-2 0,-4 0,-6 0,-2 0,-4 0,-6 0,-2 0,-4 0,-6 0,-2 0,-4 0,-6 0,-3 1,-3 1,-6 0,-3 -1,-3 -1,-6 0,-3 1,-3 1,-6 0,-3 -1,-3 -1,-6 0,-2 0,-4 0,-6 0,-2 0,-4 0,-6 0,-3 1,-3 1,-6 0,-3 -1,-3 -1,-6 0,-2 0,-4 0,-7 0,-2 0,-4 0,-6 0,-2 0,-4 -1,-6 0,-2 1,-4 1,-6 0,-2 -1,-4 -1,-6 0,-2 0,-4 0,-7 -1,-2 -1,-4 -2,-6 0,-2 0,-4 -1,-6 0,-2 -1,-4 -2,-6 0,-2 -1,-3 -2,-5 -1,-2 -2,-4 -3,-6 0,-2 -1,-4 -2,-6 -1,-1 -2,-3 -2,-5 0,-1 0,-3 1,-5 1,-1 2,-3 4,-4 1,-1 3,0 5,0 2,0 4,-1 6,-1 2,0 4,0 6,0 2,0 4,0 6,0 2,0 4,0 6,0 2,0 3,0 5,0 2,0 4,0 6,0 2,0 4,0 6,0 2,0 4,0 6,0 2,0 4,0 6,0 2,0 4,0 6,0 2,0 4,0 6,0 2,0 4,0 6,0 2,0 4,0 6,0 2,0 4,0 6,0 2,0 3,0 5,0 2,0 4,0 6,0 2,0 4,0 6,0 2,0 4,0 6,0 2,0 4,0 6,0 2,0 4,-1 6,-1 2,0 4,1 6,1 2,0 4,0 6,0 2,0 4,0 6,0 2,0 4,0 6,0 2,0 4,0 6,0 2,0 4,0 6,0 2,1 4,1 6,1 2,0 4,0 6,0 2,0 4,0 6,0 2,0 4,1 6,1 2,0 4,0 6,1 2,0 4,0 6,0 2,1 4,1 6,1 2,1 4,1 6,1 2,1 3,1 5,2 2,0 4,1 6,1 2,1 4,1 6,2 2,0 4,1 6,1 2,1 4,2 6,2 1,1 3,2 5,2 2,1 4,1 6,2 2,1 4,2 5,3 2,0 4,1 6,2 2,1 4,1 5,2 2,1 4,2 6,3 1,1 3,3 5,4 1,1 3,3 4,4 2,1 4,2 5,3 2,2 3,3 5,4 1,2 3,3 4,4 2,2 3,3 4,5 1,1 3,3 4,4 1,2 3,3 4,5 1,2 2,3 3,5 1,2 3,3 4,5 1,2 1,4 2,5 1,2 2,4 3,6 1,2 1,4 2,6 0,1 1,3 2,5 1,2 1,4 1,6 1,2 2,4 3,6 0,2 0,4 1,6 0,2 0,4 0,6 1,1 1,3 1,5 0,2 1,4 1,6 0,2 1,4 1,6 0,2 -1,4 -1,6 0,2 1,4 1,6 0,2 0,4 0,6 0,3 -1,4 -1,6 0,2 0,4 0,7 0,2 -1,3 -1,5 0,2 0,4 -1,6 0,2 -1,4 -1,6 0,2 -1,4 -2,6 0,2 0,4 -1,6 -1,2 -2,4 -3,5 0,2 -1,4 -2,5 0,2 -1,4 -2,6 -1,1 -1,4 -2,5 -1,2 -2,4 -3,5 -1,1 -2,3 -3,5 -1,1 -3,3 -4,4 -1,1 -1,3 -2,5 -2,2 -3,3 -4,4 -1,1 -2,3 -4,4 -1,1 -2,3 -4,4 -1,2 -2,3 -3,5 -2,1 -3,3 -5,3 -1,2 -2,4 -3,5 -1,2 -1,4 -1,7 1,2 1,4 2,6 1,1 2,3 4,4 2,1 3,3 5,4 1,1 3,2 4,4 2,1 3,3 4,4 1,2 3,2 5,4 1,1 2,3 3,5 2,1 3,3 4,4 1,2 3,3 4,5 1,1 3,2 4,4 1,1 2,4 3,5 1,2 3,3 4,5 1,1 2,3 3,5 1,2 2,3 3,5 1,2 2,3 3,5 0,2 1,4 2,6 0,1 2,3 2,5 1,2 2,3 3,5 1,2 1,4 2,6 1,2 1,4 2,5 0,2 1,4 2,6 0,2 1,4 2,6 0,2 1,3 1,5 0,2 0,4 1,6 0,2 1,4 1,6 1,2 0,4 0,6 1,2 2,4 2,6 0,2 0,4 0,6 0,2 1,4 1,6 0,1 -1,3 -1,5 0,2 0,4 0,6 0,2 0,4 0,6 0,2 0,4 0,6 -1,2 -1,4 -1,6 0,2 0,4 0,6 -1,2 -1,4 -2,6 0,2 0,4 -1,6 0,2 -1,4 -1,6 -1,2 -1,3 -2,5 -1,2 -1,4 -2,6 0,2 -1,4 -1,6 -1,2 -2,3 -3,5 -1,2 -1,4 -2,6 -1,2 -2,3 -3,5 -1,2 -2,4 -3,5 -1,2 -1,4 -2,6 -1,2 -2,3 -4,4 -1,1 -2,3 -3,4 -1,2 -2,4 -3,5 -1,1 -3,2 -4,4 -1,2 -2,3 -4,4 -1,1 -2,3 -4,4 -1,2 -3,3 -4,4 -1,2 -3,3 -4,4 -2,2 -4,3 -5,3 -2,1 -3,2 -5,3 -1,1 -3,2 -5,3 -1,1 -2,3 -4,4 -2,1 -4,2 -6,2 -1,1 -3,2 -4,3 -2,1 -4,2 -6,2 -1,1 -3,2 -5,3 -2,0 -4,1 -6,2 -1,1 -3,2 -5,3 -2,1 -4,1 -6,1 -1,1 -3,2 -5,2 -2,1 -4,1 -6,2 -2,1 -4,1 -6,2 -1,0 -3,1 -5,2 -2,0 -4,0 -6,1 -2,0 -4,1 -6,1 -2,1 -4,1 -6,1 -2,0 -4,0 -6,0 -2,1 -4,2 -6,2 -2,0 -4,0 -6,0 -2,0 -4,1 -6,1 -2,0 -3,0 -5,0 -2,0 -4,0 -6,0 -2,0 -4,0 -6,0 -3,0 -3,1 -6,1 -2,0 -4,0 -6,0 -2,0 -4,0 -6,0 -3,0 -3,-1 -6,-1 -2,0 -4,0 -6,0 -3,0 -3,1 -6,1 -2,0 -4,0 -6,0 -3,0 -3,-1 -6,-1 -2,0 -4,0 -6,0 -2,0 -4,0 -6,0 -2,0 -4,0 -6,0 -2,0 -4,0 -6,0 -2,0 -4,0 -6,0 -2,0 -4,0 -6,0 -2,0 -4,0 -6,0 -2,0 -4,0 -6,0 -2,0 -3,0 -5,0 -2,0 -4,0 -6,0 -2,0 -4,0 -6,0 -2,0 -4,0 -6,0 -2,0 -4,0 -6,0 -2,0 -4,0 -6,0 -2,0 -4,0 -6,0 -2,0 -4,0 -6,0 -2,0 -4,0 -6,0 -3,0 -3,0 -6,1 0,0 0,-1 0,-1 -2,0 -4,0 -5,-1z"/>
  <path class="fil0" d="M3053 971c0,2 0,4 0,6 0,3 -1,3 -1,6 0,2 0,4 0,6 0,2 0,4 0,6 0,2 0,3 0,5 0,2 0,4 0,6 0,2 0,4 0,6 0,2 0,4 0,6 0,2 0,4 0,6 0,2 0,4 0,6 0,2 0,4 0,6 0,2 0,4 0,6 0,3 1,3 1,6 0,3 -1,3 -1,6 0,2 0,4 0,6 0,2 0,4 0,6 0,2 0,4 0,6 0,3 1,3 1,6 0,2 -1,2 -1,5 0,2 0,4 0,6 0,2 0,4 0,6 0,2 0,4 0,6 0,2 0,4 0,6 0,2 0,4 0,6 0,3 1,3 1,6 0,2 0,4 0,6 1,2 2,3 4,5 1,1 3,2 5,3 1,0 3,1 5,1 2,0 4,0 6,0 3,0 3,1 6,1 2,0 5,-1 7,0 2,0 4,-1 6,0 2,0 4,-1 6,0 2,0 4,0 6,0 2,0 4,-1 5,-1 2,-1 4,-2 6,-2 2,-1 3,-2 5,-2 2,-1 3,-3 5,-3 1,-1 3,-2 5,-2 1,-2 2,-4 4,-4 1,-2 2,-4 3,-4 1,-2 3,-3 4,-4 1,-2 1,-4 2,-5 1,-1 2,-3 3,-4 0,-2 1,-4 2,-5 0,-2 1,-4 2,-5 0,-2 1,-4 1,-6 1,-2 1,-4 1,-6 0,-2 1,-4 1,-6 0,-2 1,-4 1,-6 0,-2 0,-4 0,-6 0,-2 0,-4 0,-6 0,-2 0,-4 0,-6 0,-2 0,-4 0,-6 0,-2 -1,-4 -1,-6 0,-2 0,-4 -1,-6 0,-2 1,-4 0,-6 0,-2 -1,-3 -1,-5 -1,-2 -1,-4 -2,-6 0,-2 -1,-4 -2,-6 0,-2 -1,-3 -1,-5 -1,-2 -2,-4 -2,-6 -1,-2 -3,-3 -4,-5 -1,-1 -2,-3 -3,-5 -1,-1 -2,-3 -3,-5 -2,-1 -3,-2 -5,-4 -1,-1 -3,-2 -4,-3 -2,-2 -4,-2 -6,-3 -1,-1 -3,-2 -5,-3 -2,-1 -4,-1 -6,-1 -1,-1 -3,-2 -5,-2 -2,-1 -4,-1 -6,-2 -2,0 -4,0 -6,-1 -2,0 -4,0 -6,0 -2,-1 -4,-1 -6,-1 -3,0 -3,-1 -6,-1 -3,0 -3,1 -6,0 -2,0 -4,0 -6,0 -1,1 -3,2 -4,3 -2,2 -3,3 -4,4 0,2 -1,4 -1,6 0,3 1,3 1,6zm162 230c1,2 1,4 2,6 1,3 1,3 1,6 1,2 1,4 2,6 1,3 1,3 1,6 1,2 1,3 2,5 1,2 1,4 2,6 1,2 1,4 2,6 0,3 0,3 1,6 1,2 1,4 2,6 1,3 0,3 1,6 1,2 1,4 2,6 1,3 1,3 2,5 0,3 1,3 2,6 0,3 0,3 1,6 1,3 0,3 1,6 1,2 1,4 2,6 1,3 1,3 1,6 1,3 2,3 3,6 1,3 0,3 1,6 1,3 1,2 2,5 1,3 1,3 1,6 1,2 1,4 2,6 1,3 0,3 1,6 1,2 1,4 2,6 1,2 1,4 2,6 1,2 1,4 2,6 0,3 0,3 1,6 1,2 1,2 2,5 1,2 1,4 1,6 1,2 2,4 3,6 1,2 1,4 1,6 1,2 2,3 3,5 0,2 1,4 2,6 1,2 2,4 3,6 0,1 1,4 1,5 1,2 2,4 3,6 1,2 2,4 3,5 1,2 3,4 4,5 1,2 2,4 3,5 1,2 1,4 3,6 1,2 2,3 4,5 1,1 2,3 2,5 0,2 -1,3 -1,5 -1,2 -2,4 -4,4 -1,1 -3,1 -5,0 -2,0 -4,0 -6,-1 -2,0 -4,0 -6,-1 -2,0 -4,0 -6,-1 -2,0 -4,0 -6,-1 -2,0 -4,0 -6,-1 -2,0 -4,0 -6,-1 -2,0 -3,0 -5,-1 -2,0 -4,0 -6,-1 -2,0 -4,0 -6,-1 -2,0 -4,0 -6,-1 -2,0 -4,0 -6,-1 -2,0 -4,0 -6,-1 -2,0 -4,0 -6,-1 -2,0 -3,0 -5,0 -2,0 -4,0 -6,-1 -2,0 -4,1 -6,0 -2,0 -4,-1 -6,-1 -2,0 -4,0 -6,-1 -2,0 -4,0 -6,-1 -2,0 -4,0 -6,-1 -2,0 -4,-1 -6,-1 -2,-1 -3,-2 -5,-3 -1,-2 -2,-3 -2,-5 -1,-2 -1,-4 -1,-6 1,-2 1,-4 1,-6 0,-2 0,-4 0,-6 0,-2 0,-4 0,-6 0,-2 0,-4 -1,-6 0,-2 -1,-4 -1,-6 -1,-2 -1,-4 -2,-6 -1,-2 0,-4 -1,-6 -1,-2 -1,-4 -1,-6 -1,-2 -2,-4 -3,-6 -1,-2 -1,-4 -2,-6 0,-2 -1,-4 -2,-6 0,-2 -1,-4 -1,-6 -1,-2 -1,-3 -2,-5 0,-3 0,-3 -1,-6 -1,-2 -1,-4 -2,-6 -1,-3 -1,-3 -1,-6 -1,-2 -1,-2 -2,-5 -1,-2 -1,-4 -2,-6 -1,-3 -1,-3 -1,-6 -1,-3 -2,-2 -2,-5 -1,-2 -1,-4 -2,-6 0,-3 -1,-3 -2,-6 -1,-3 0,-3 -1,-6 -1,-2 -1,-2 -1,-5 -1,-2 -1,-4 -2,-6 0,-3 -1,-3 -2,-6 0,-3 0,-3 -1,-5 -1,-2 -1,-4 -2,-6 -1,-2 -1,-4 -2,-6 -1,-3 0,-3 -1,-6 0,-3 -1,-3 -2,-5 -1,-3 0,-3 -1,-6 -1,-2 -1,-4 -2,-6 -1,-2 -1,-4 -2,-6 0,-2 -1,-4 -3,-5 -1,-2 -3,-3 -5,-4 -2,-1 -4,-2 -7,-2 -2,0 -3,1 -5,1 -2,0 -4,0 -6,0 -2,0 -4,0 -6,0 -2,0 -4,0 -5,1 -2,1 -4,2 -6,2 -1,2 -2,3 -3,4 -1,2 -1,4 -1,6 0,2 0,4 0,6 0,2 0,4 0,6 0,2 0,4 0,6 0,2 0,4 0,6 0,2 0,4 0,6 0,2 0,4 0,6 0,3 1,3 1,6 0,2 0,4 0,6 0,4 -1,4 -1,6 0,3 1,3 1,6 0,3 -1,3 -1,6 0,2 0,4 0,6 0,2 0,4 0,6 0,2 0,4 0,6 0,2 0,4 0,6 0,2 0,4 0,6 0,2 0,4 0,6 0,2 0,4 0,6 0,2 0,4 0,6 0,2 0,4 0,6 0,2 0,4 0,7 0,2 0,4 1,6 0,2 0,4 0,6 0,2 0,4 0,6 0,2 0,4 0,6 0,3 1,5 2,7 0,2 -1,4 0,6 0,2 1,4 1,6 1,2 1,4 2,6 0,2 1,4 2,6 0,2 2,3 3,5 1,2 2,4 3,6 1,1 2,3 2,5 0,1 -1,3 -2,5 -1,1 -2,3 -4,3 -1,1 -3,2 -5,1 -2,0 -4,0 -6,0 -2,0 -4,0 -6,0 -2,0 -3,0 -5,0 -2,0 -4,0 -6,0 -2,0 -4,0 -6,0 -2,0 -4,0 -6,0 -2,0 -4,0 -6,0 -2,0 -4,0 -6,0 -2,0 -4,0 -6,0 -2,0 -4,0 -6,0 -2,0 -4,0 -6,0 -2,0 -4,0 -6,0 -2,0 -4,0 -6,0 -2,0 -4,0 -6,0 -2,0 -4,0 -6,0 -2,0 -4,0 -6,0 -2,0 -4,0 -6,0 -2,0 -4,0 -6,0 -2,0 -4,0 -6,0 -2,0 -4,0 -6,0 -2,0 -4,0 -6,0 -2,0 -4,-1 -5,-1 -2,-1 -3,-2 -4,-4 -1,-2 -1,-4 -1,-5 0,-2 0,-4 1,-6 2,-1 2,-3 3,-4 1,-2 2,-4 3,-5 1,-1 2,-3 3,-4 0,-2 0,-4 1,-6 0,-2 0,-4 1,-6 0,-2 1,-4 1,-6 1,-2 1,-4 1,-7 0,-2 0,-4 0,-6 0,-2 1,-4 1,-6 0,-2 0,-4 0,-6 0,-2 0,-4 0,-6 0,-2 0,-4 0,-7 0,-2 0,-4 0,-6 0,-2 0,-4 0,-6 0,-2 0,-4 0,-6 0,-3 1,-3 1,-6 0,-3 -1,-3 -1,-5 0,-2 0,-4 0,-6 0,-2 0,-4 0,-6 0,-2 0,-4 0,-6 0,-2 0,-4 0,-6 0,-2 0,-4 0,-6 0,-2 0,-4 0,-6 0,-2 0,-4 0,-6 0,-3 1,-3 1,-6 0,-3 -1,-3 -1,-6 0,-2 0,-4 0,-6 0,-2 0,-4 0,-6 0,-2 0,-4 0,-6 0,-2 0,-4 0,-6 0,-2 0,-4 0,-6 0,-2 0,-4 0,-6 0,-2 0,-4 0,-6 0,-3 1,-3 1,-6 0,-3 -1,-3 -1,-6 0,-3 1,-3 1,-6 0,-3 -1,-3 -1,-6 0,-2 0,-4 0,-6 0,-2 0,-4 0,-6 0,-2 0,-4 0,-6 0,-3 1,-3 1,-6 0,-3 -1,-3 -1,-6 0,-3 1,-3 1,-6 0,-3 -1,-3 -1,-6 0,-2 0,-4 0,-6 0,-2 0,-4 0,-6 0,-2 0,-4 0,-6 0,-2 0,-4 0,-6 0,-2 0,-4 0,-6 0,-2 0,-4 0,-6 0,-2 0,-4 0,-6 0,-3 1,-3 1,-6 0,-3 -1,-3 -1,-6 0,-3 1,-3 1,-6 0,-2 0,-4 0,-6 0,-3 -1,-3 -1,-6 0,-2 0,-4 0,-6 0,-2 0,-4 0,-6 0,-2 0,-4 0,-6 0,-2 0,-4 0,-6 0,-2 0,-4 0,-6 0,-3 1,-3 1,-6 0,-3 -1,-3 -1,-6 0,-2 0,-4 0,-6 0,-2 0,-4 0,-6 0,-2 0,-4 0,-6 0,-2 0,-4 0,-6 0,-2 0,-4 0,-6 0,-2 0,-3 0,-5 0,-2 0,-4 0,-6 0,-2 0,-4 0,-6 0,-2 0,-4 0,-6 0,-3 1,-3 1,-6 0,-3 -1,-3 -1,-6 0,-2 0,-4 0,-6 0,-2 0,-4 0,-6 0,-2 0,-4 0,-6 0,-2 0,-4 0,-6 0,-2 0,-4 0,-6 0,-2 0,-4 0,-6 0,-2 0,-4 0,-6 0,-2 0,-4 0,-6 0,-3 1,-3 1,-6 0,-2 0,-4 0,-7 0,-2 0,-4 0,-6 -1,-2 -2,-4 -2,-6 0,-2 0,-4 0,-6 0,-2 0,-4 0,-6 0,-2 0,-4 -1,-6 0,-3 0,-5 -1,-7 0,-2 0,-4 -1,-6 0,-2 -1,-4 -1,-6 -1,-2 -2,-4 -3,-6 0,-1 -2,-3 -2,-5 -1,-2 -2,-4 -3,-6 -1,-1 -2,-3 -2,-5 0,-1 0,-3 1,-5 1,-1 2,-2 4,-3 1,-1 3,-2 5,-2 2,0 4,0 6,0 2,0 4,0 6,0 2,0 4,0 6,0 2,0 4,0 6,0 2,0 4,0 6,0 2,0 4,0 6,0 2,0 4,0 6,0 2,0 4,0 6,0 2,0 4,0 6,0 2,0 4,0 6,0 2,0 4,0 6,0 2,0 4,0 6,0 2,0 4,0 6,0 2,0 4,0 6,0 2,0 4,0 6,0 2,0 4,0 6,0 2,0 4,1 6,1 2,0 4,-1 6,0 2,0 4,0 6,0 2,0 4,0 6,0 2,0 4,0 6,0 2,0 4,0 6,0 2,0 4,0 6,0 2,0 4,1 6,1 2,0 4,-1 6,0 2,0 4,1 6,1 2,0 4,0 6,1 2,0 4,-1 6,0 2,0 4,0 6,1 2,1 4,1 6,1 2,1 4,1 6,1 2,0 4,1 6,1 2,1 4,0 6,1 2,0 4,0 6,1 2,0 4,1 6,1 2,1 4,1 6,2 2,0 4,1 6,1 2,1 4,2 5,2 2,1 4,2 6,2 2,1 4,2 6,3 2,0 3,1 5,2 2,1 4,2 5,3 2,1 4,1 6,2 2,1 3,3 5,4 2,1 4,1 5,3 2,1 4,2 5,3 2,1 4,2 6,3 1,1 3,2 4,4 2,1 3,3 4,4 2,1 4,2 5,4 2,1 3,3 4,4 2,2 3,3 5,4 1,2 2,4 3,5 2,2 2,4 4,5 1,2 2,4 3,5 1,2 2,4 3,5 1,2 3,4 4,5 1,2 2,4 3,5 1,2 1,4 2,6 1,2 2,4 3,6 0,1 1,3 2,5 0,2 1,4 1,6 1,2 2,4 3,6 0,1 1,3 2,5 0,2 0,4 0,6 1,2 2,4 2,6 1,2 1,4 2,6 0,2 0,4 1,6 0,2 0,4 0,6 0,2 1,4 1,6 0,2 0,4 0,6 0,2 0,4 0,6 1,2 1,4 1,6 0,2 0,4 0,6 0,2 0,4 0,6 0,2 0,4 0,6 0,2 0,4 0,6 0,2 -1,4 -1,6 0,2 0,4 0,6 -1,2 -1,4 -1,6 0,2 0,4 -1,6 0,2 -1,4 -1,6 -1,1 -1,3 -2,4 0,2 0,4 0,6 -1,2 -2,4 -3,5 0,2 -1,4 -2,5 0,2 -1,3 -1,5 -1,2 -2,4 -2,5 -1,2 -2,4 -3,5 -1,1 -1,3 -2,4 -1,2 -3,3 -4,4 0,2 -1,4 -2,4 -1,2 -2,4 -3,4 -2,2 -2,4 -3,5 -2,1 -3,3 -4,3 -1,2 -3,3 -4,4 -1,2 -2,4 -3,4 -1,2 -3,3 -5,3 -1,2 -2,3 -4,4 -1,1 -3,2 -4,3 -2,1 -3,2 -4,3 -2,1 -3,3 -4,3 -1,2 -1,4 -1,6 0,1 0,3 1,5 0,0 -1,0 -1,0 1,3 2,3 2,6z"/>
  <path class="fil0" d="M3313 1447c-2,-1 -3,-2 -4,-4 -1,-2 -1,-4 -1,-5 0,-2 1,-4 2,-4 1,-2 2,-4 3,-5 1,-1 1,-4 2,-5 1,-1 2,-3 2,-4 1,-2 2,-4 3,-5 0,-2 0,-4 1,-6 0,-2 0,-4 0,-6 0,-2 1,-5 1,-6 0,-2 0,-4 0,-6 0,-2 1,-4 1,-6 0,-2 0,-4 0,-6 0,-2 0,-4 0,-6 0,-2 0,-4 0,-7 0,-2 0,-4 0,-6 0,-2 0,-4 0,-6 0,-3 1,-3 1,-6 0,-2 0,-4 0,-6 0,-2 0,-3 0,-5 0,-2 0,-4 0,-6 0,-3 -1,-3 -1,-6 0,-3 1,-3 1,-6 0,-2 0,-4 0,-6 0,-3 -1,-3 -1,-6 0,-3 1,-3 1,-6 0,-2 0,-4 0,-6 0,-3 -1,-3 -1,-6 0,-2 0,-4 0,-6 0,-2 0,-4 0,-6 0,-3 1,-3 1,-6 0,-3 -1,-3 -1,-6 0,-3 1,-3 1,-6 0,-3 -1,-3 -1,-6 0,-3 1,-3 1,-6 0,-3 -1,-3 -1,-6 0,-3 1,-3 1,-6 0,-2 0,-4 0,-6 0,-2 0,-4 0,-6 0,-3 -1,-3 -1,-6 0,-2 0,-4 0,-6 0,-2 0,-4 0,-6 0,-3 1,-3 1,-6 0,-2 0,-4 0,-6 0,-3 -1,-3 -1,-6 0,-3 1,-3 1,-6 0,-2 0,-4 0,-6 0,-3 -1,-3 -1,-6 0,-2 0,-4 0,-6 0,-3 1,-3 1,-6 0,-3 -1,-3 -1,-6 0,-3 1,-3 1,-6 0,-3 -1,-3 -1,-6 0,-3 1,-3 1,-6 0,-3 -1,-3 -1,-6 0,-2 0,-4 0,-6 0,-3 1,-3 1,-6 0,-3 -1,-3 -1,-6 0,-3 1,-3 1,-6 0,-3 -1,-3 -1,-6 0,-3 1,-3 1,-6 0,-2 0,-4 0,-6 0,-3 -1,-3 -1,-6 0,-3 1,-3 1,-6 0,-3 -1,-3 -1,-6 0,-3 1,-3 1,-6 0,-3 -1,-3 -1,-6 0,-2 0,-4 0,-6 0,-3 1,-3 1,-6 0,-3 -1,-3 -1,-6 0,-3 1,-3 1,-6 0,-2 0,-3 0,-5 0,-2 0,-4 0,-6 0,-2 0,-4 0,-6 0,-2 0,-4 0,-6 0,-2 0,-4 0,-6 0,-2 0,-4 0,-6 0,-2 0,-4 0,-6 0,-2 0,-4 0,-6 0,-2 0,-4 0,-6 0,-3 -1,-3 -1,-6 0,-2 0,-4 0,-6 0,-2 0,-4 0,-6 0,-3 1,-3 1,-6 0,-3 -1,-3 -1,-6 0,-2 0,-4 0,-6 0,-2 0,-4 0,-7 0,-2 0,-4 0,-6 0,-2 0,-4 0,-6 0,-2 0,-4 0,-6 -1,-2 -1,-4 -1,-6 0,-2 0,-4 -1,-6 0,-3 0,-5 -1,-7 0,-2 0,-4 -1,-6 0,-2 -1,-4 -2,-6 0,-2 -1,-3 -2,-5 -1,-2 -1,-4 -2,-6 -1,-2 -2,-4 -3,-6 -1,-1 -2,-3 -2,-5 0,-1 1,-3 2,-4 0,-1 2,-3 3,-3 2,0 3,-1 5,0 2,0 4,0 6,1 2,0 4,0 6,1 2,0 4,0 6,1 2,0 4,0 6,1 2,0 4,1 6,2 2,0 4,0 6,0 2,0 4,0 6,1 2,0 4,0 6,1 2,0 4,0 6,1 2,0 4,0 6,1 2,0 4,0 6,1 2,0 4,0 6,1 2,0 4,0 6,1 2,0 4,0 6,1 2,0 4,0 6,1 2,0 4,0 6,1 2,0 4,0 6,1 2,0 4,0 6,1 2,0 4,0 6,1 2,0 4,1 6,2 2,0 4,0 6,0 2,0 3,1 5,2 1,0 2,2 3,3 1,2 1,4 1,5 0,2 0,4 -1,6 -1,1 -2,3 -3,4 -1,2 -1,4 -2,5 -1,2 -2,3 -3,4 0,2 0,4 -1,6 0,2 -1,4 -2,5 0,2 0,4 0,7 -1,2 -1,4 -1,6 0,2 -1,4 -1,6 0,2 0,4 0,6 0,2 -1,4 -1,6 0,2 1,4 1,6 0,2 0,4 0,7 0,3 -1,3 -1,6 0,3 1,3 1,6 0,2 0,4 0,6 0,3 -1,3 -1,6 0,3 1,3 1,6 0,3 -1,3 -1,6 0,2 0,4 0,6 0,3 1,3 1,6 0,3 -1,3 -1,6 0,3 1,3 1,5 0,3 -1,3 -1,6 0,2 0,4 0,6 0,3 1,3 1,6 0,3 -1,3 -1,6 0,2 0,4 0,6 0,3 1,3 1,6 0,3 -1,3 -1,6 0,3 1,3 1,6 0,2 0,4 0,6 0,2 0,4 0,6 0,3 -1,3 -1,6 0,2 0,4 0,6 0,2 0,4 0,6 0,3 1,3 1,6 0,3 -1,3 -1,6 0,2 0,4 0,6 0,3 1,3 1,6 0,3 -1,3 -1,6 0,2 0,4 0,6 0,2 0,4 0,6 0,3 1,3 1,6 0,3 -1,3 -1,6 0,3 1,3 1,6 0,3 -1,3 -1,6 0,2 0,4 0,6 0,2 0,4 0,6 0,3 1,3 1,6 0,2 0,4 0,6 0,3 -1,3 -1,6 0,2 0,4 0,6 0,2 0,4 0,6 0,2 0,4 0,6 0,3 1,3 1,6 0,2 0,4 0,6 0,2 0,4 0,6 0,2 0,4 0,6 0,2 0,4 0,6 0,2 0,4 0,6 0,2 0,4 0,6 0,3 -1,3 -1,6 0,3 1,3 1,6 0,2 0,4 0,6 0,3 -1,3 -1,6 0,2 0,4 0,6 0,3 1,3 1,6 0,3 -1,3 -1,6 0,2 0,4 0,6 0,3 1,3 1,6 0,2 0,4 0,6 0,3 -1,3 -1,6 0,3 1,3 1,6 0,2 0,4 0,6 0,3 -1,3 -1,5 0,3 1,3 1,6 0,3 -1,3 -1,6 0,2 0,4 0,6 0,2 0,4 0,6 0,3 1,3 1,6 0,2 0,4 0,6 0,3 -1,3 -1,6 0,2 0,4 0,6 0,2 0,4 0,7 0,2 1,4 1,6 0,2 0,4 0,6 0,2 0,4 0,6 0,2 0,4 0,6 1,3 1,5 2,7 0,2 1,4 1,6 0,2 0,4 1,6 0,2 0,4 1,6 1,2 1,4 2,6 1,2 2,3 3,5 1,2 2,4 3,5 1,2 1,4 2,6 0,1 -1,3 -1,5 -1,2 -2,3 -4,3 -1,1 -3,1 -5,0 -2,0 -4,0 -6,-1 -2,0 -4,0 -6,0 -2,0 -4,-1 -6,-2 -2,0 -4,0 -6,-1 -2,0 -4,0 -6,-1 -2,0 -4,0 -6,-1 -2,0 -4,0 -6,-1 -2,0 -4,0 -6,-1 -2,0 -4,0 -6,-1 -2,0 -4,0 -6,-1 -2,0 -4,0 -6,-1 -2,0 -4,0 -6,-1 -2,0 -4,0 -6,-1 -2,0 -4,0 -6,-1 -2,0 -4,0 -6,-1 -2,0 -4,0 -6,-1 -2,0 -4,0 -6,-1 -2,0 -4,0 -6,-1 -2,0 -4,0 -6,-1 -2,0 -4,0 -6,-1 -2,0 -4,0 -6,-1 -2,0 -4,0 -5,-1z"/>
  <path class="fil0" d="M3627 1209c0,3 -1,3 -1,6 0,3 1,3 1,6 0,3 -1,3 -1,5 0,3 1,3 1,7 0,2 0,4 0,6 0,3 -1,3 -1,5 0,2 0,4 0,6 0,3 1,3 1,6 0,2 0,4 0,6 0,3 -1,3 -1,6 0,2 0,4 0,6 0,3 1,3 1,6 0,3 -1,3 -1,6 0,3 1,3 1,6 0,3 -1,3 -1,6 0,3 1,3 1,6 0,3 -1,3 -1,5 0,2 0,4 0,6 0,2 0,4 0,6 0,2 0,4 0,6 0,2 0,4 0,6 0,3 1,3 1,6 0,2 0,4 0,6 0,3 -1,3 -1,5 0,2 0,4 0,6 0,4 1,4 1,7 0,3 -1,3 -1,5 0,2 0,4 0,6 0,2 0,4 0,6 0,2 0,4 0,6 0,2 1,4 2,6 1,2 2,4 3,5 2,1 4,2 6,4 1,0 3,1 6,2 2,0 4,1 6,1 2,-1 4,1 5,0 2,0 4,0 6,0 2,0 4,0 6,0 2,-1 4,0 6,0 2,-1 4,-1 5,-2 2,-1 4,-1 6,-2 2,0 4,0 5,-1 2,-1 4,-1 5,-2 2,-2 3,-2 5,-3 1,-1 3,-2 4,-3 2,-1 3,-3 5,-4 1,-1 2,-3 3,-4 1,-1 3,-1 4,-3 1,-2 2,-3 3,-4 1,-2 2,-3 3,-4 1,-2 2,-3 3,-5 1,-1 2,-3 3,-4 1,-1 1,-3 2,-4 1,-2 2,-3 3,-5 0,-2 0,-4 1,-5 1,-2 2,-3 3,-5 0,-2 1,-4 1,-5 1,-2 1,-4 2,-5 0,-1 1,-3 1,-5 1,-2 1,-4 2,-5 0,-2 0,-4 1,-5 0,-2 1,-4 1,-5 0,-2 1,-4 2,-5 0,-2 0,-3 0,-5 1,-2 1,-4 1,-5 0,-2 1,-4 1,-5 1,-2 0,-4 0,-6 1,-2 1,-4 1,-5 0,-2 1,-4 1,-5 0,-2 0,-4 0,-6 0,-2 1,-4 1,-5 0,-2 0,-4 0,-6 0,-2 0,-4 0,-6 0,-2 0,-4 0,-6 0,-2 0,-4 0,-6 0,-2 0,-4 0,-6 0,-2 0,-4 0,-6 0,-2 0,-4 0,-6 0,-2 0,-4 0,-6 0,-2 0,-4 0,-6 0,-2 1,-4 1,-5 0,-2 -1,-4 -1,-6 0,-2 -1,-4 -1,-6 0,-2 0,-4 0,-6 0,-2 0,-4 0,-6 0,-2 -1,-4 -1,-6 0,-2 0,-4 0,-6 -1,-2 -1,-4 -2,-6 0,-2 0,-3 0,-5 0,-2 -1,-4 -1,-6 0,-2 0,-4 -1,-6 0,-2 0,-4 0,-6 -1,-2 -2,-4 -2,-6 -1,-2 0,-4 -1,-6 0,-2 -1,-4 -1,-6 -1,-2 -1,-4 -2,-6 0,-2 -2,-3 -2,-5 -1,-2 -1,-4 -2,-6 -1,-2 -1,-4 -2,-5 0,-2 -1,-4 -2,-6 -1,-2 -1,-4 -2,-6 -1,-2 -2,-3 -3,-5 0,-2 -1,-4 -2,-6 -1,-1 -2,-3 -3,-5 -1,-1 -2,-3 -3,-5 -1,-2 -2,-3 -4,-5 -1,-1 -1,-3 -3,-5 -1,-1 -2,-3 -3,-4 -2,-2 -3,-4 -5,-5 -1,-1 -3,-2 -4,-4 -2,-1 -4,-2 -5,-4 -2,-1 -3,-2 -5,-4 -2,-1 -3,-3 -5,-5 -2,0 -4,-2 -5,-3 -2,-1 -4,-2 -6,-4 -2,0 -4,-2 -6,-2 -2,-1 -4,-2 -6,-2 -2,-1 -4,-2 -6,-2 -2,0 -3,0 -5,-2 -2,0 -4,-1 -6,-1 -3,0 -5,-1 -7,0 -1,1 -3,1 -5,2 -1,2 -2,3 -3,4 -1,2 -2,4 -2,5 0,2 0,4 0,6 0,2 0,4 0,6 0,3 1,3 1,6 0,2 0,4 0,7 0,3 -1,3 -1,6 0,2 0,4 0,6 0,2 0,4 0,6 0,2 0,4 0,6 0,3 1,3 1,6 0,3 -1,3 -1,5 0,2 0,4 0,6 0,2 0,4 0,6 0,2 0,4 0,6 0,2 0,4 0,6 0,3 1,3 1,7 0,2 0,4 0,6 0,3 -1,3 -1,5 0,3 1,3 1,6 0,3 -1,3 -1,5 0,2 0,4 0,6 0,2 0,4 0,6 0,3 1,3 1,6 0,2 0,4 0,6 0,3 -1,3 -1,6 0,3 1,3 1,6 0,2 0,4 0,7 0,2 0,4 0,6 0,3 -1,3 -1,5 0,3 1,3 1,6 0,3 -1,3 -1,6 0,2 0,4 0,6 0,3 1,3 1,6zm248 37c0,2 -1,4 -1,5 0,2 1,4 1,6 0,2 -1,4 -1,5 0,2 0,4 0,6 0,2 0,4 0,6 0,2 -1,4 -1,5 0,2 0,4 0,6 0,2 0,4 0,6 0,2 -1,4 -1,5 0,2 -1,4 -1,5 0,2 0,4 -1,5 0,2 1,4 0,6 0,2 -1,3 -1,5 -1,2 0,4 -1,5 0,2 0,4 -1,5 0,2 0,4 0,6 -1,2 -2,3 -2,5 -1,2 -1,4 -1,5 -1,2 -1,4 -2,5 0,2 0,4 -1,5 0,1 -1,3 -1,5 -1,2 -1,4 -2,5 0,2 -1,4 -1,5 -1,2 -2,3 -3,4 0,2 -1,4 -1,5 -1,2 -1,4 -2,5 -1,2 -2,2 -3,4 0,2 -1,4 -2,5 0,2 -1,4 -2,4 -1,2 -2,3 -3,5 -1,2 -1,4 -2,4 -1,2 -2,3 -3,4 -1,2 -1,4 -2,5 -1,2 -3,2 -4,4 -1,2 -2,3 -3,4 -1,2 -2,3 -3,4 -1,1 -2,3 -3,4 -1,2 -3,2 -4,4 -1,1 -3,1 -4,3 -2,2 -2,3 -4,4 -1,1 -2,3 -4,3 -1,2 -3,2 -4,3 -2,2 -3,2 -5,3 -1,2 -3,2 -4,3 -1,1 -3,2 -4,3 -2,2 -4,2 -5,3 -2,1 -3,2 -5,3 -1,1 -3,1 -5,2 -1,1 -3,2 -4,3 -2,1 -4,0 -6,1 -2,1 -3,2 -5,3 -2,1 -4,0 -5,1 -2,1 -4,1 -6,2 -1,1 -3,0 -5,1 -2,1 -4,1 -5,2 -2,1 -4,0 -6,0 -2,1 -4,1 -6,2 -2,0 -3,1 -5,1 -2,0 -4,0 -6,0 -2,1 -4,0 -6,1 -2,0 -4,0 -6,1 -2,0 -4,-1 -6,0 -2,0 -4,-1 -6,-1 -2,0 -3,1 -5,0 -2,1 -4,0 -6,1 -2,0 -4,-1 -6,-1 -2,0 -4,0 -6,0 -2,0 -4,0 -6,0 -2,0 -4,-1 -6,-1 -2,0 -4,-1 -6,0 -2,0 -4,-2 -6,-2 -2,0 -4,-1 -6,-1 -2,0 -4,0 -6,0 -2,0 -4,-1 -6,-1 -3,0 -3,1 -6,0 -3,0 -3,-1 -6,-2 -2,0 -4,-1 -6,-1 -2,0 -4,-1 -6,-1 -2,0 -4,-1 -6,-1 -2,0 -5,-1 -7,-1 -2,0 -4,-1 -6,-1 -2,0 -4,-1 -6,-1 -2,0 -4,-1 -6,-1 -2,0 -4,-1 -6,-1 -2,0 -4,-1 -6,-1 -2,0 -4,-1 -6,-1 -2,0 -4,-1 -6,-1 -2,0 -4,-1 -6,-1 -2,0 -5,-1 -7,-1 -2,0 -4,-1 -6,-1 -2,0 -4,-1 -6,-1 -2,0 -4,-1 -6,-1 -2,0 -4,0 -5,-2 -2,-1 -2,-3 -3,-4 -1,-2 -2,-4 -2,-5 0,-2 1,-4 2,-4 1,-2 1,-4 2,-5 1,-2 2,-4 3,-5 1,-1 2,-3 2,-4 1,-2 1,-4 2,-5 0,-2 1,-4 1,-6 1,-2 1,-4 1,-6 0,-1 1,-3 1,-6 1,-2 0,-4 0,-6 1,-2 1,-4 1,-6 0,-2 0,-4 0,-6 0,-2 1,-4 1,-5 0,-2 0,-4 0,-7 0,-2 0,-4 0,-6 0,-2 0,-4 0,-6 0,-3 -1,-3 -1,-6 0,-2 0,-4 0,-6 0,-3 1,-3 1,-6 0,-2 0,-4 0,-6 0,-2 0,-4 0,-6 0,-2 0,-4 0,-6 0,-2 0,-4 0,-6 0,-3 -1,-3 -1,-6 0,-2 0,-4 0,-6 0,-3 1,-3 1,-6 0,-3 -1,-3 -1,-6 0,-3 1,-3 1,-5 0,-4 -1,-4 -1,-7 0,-3 1,-3 1,-5 0,-3 -1,-3 -1,-6 0,-3 1,-3 1,-6 0,-3 -1,-3 -1,-6 0,-2 0,-4 0,-6 0,-2 0,-4 0,-6 0,-3 1,-3 1,-6 0,-2 0,-4 0,-6 0,-2 0,-4 0,-6 0,-3 -1,-3 -1,-6 0,-3 1,-3 1,-5 0,-2 0,-4 0,-6 0,-2 0,-4 0,-6 0,-3 -1,-3 -1,-7 0,-2 0,-4 0,-6 0,-2 0,-4 0,-6 0,-2 0,-4 0,-6 0,-3 1,-3 1,-6 0,-3 -1,-3 -1,-6 0,-2 0,-4 0,-6 0,-3 1,-3 1,-5 0,-2 0,-4 0,-6 0,-3 -1,-3 -1,-6 0,-2 0,-4 0,-6 0,-3 1,-3 1,-6 0,-3 -1,-3 -1,-6 0,-2 0,-4 0,-6 0,-2 0,-4 0,-6 0,-3 1,-3 1,-6 0,-3 -1,-3 -1,-6 0,-3 1,-3 1,-6 0,-3 -1,-3 -1,-6 0,-3 1,-3 1,-6 0,-3 -1,-3 -1,-6 0,-2 0,-4 0,-6 0,-2 0,-4 0,-6 0,-2 0,-4 0,-6 0,-2 0,-4 0,-6 0,-2 0,-4 0,-6 0,-3 1,-3 1,-6 0,-2 0,-4 0,-6 0,-3 -1,-3 -1,-6 0,-3 1,-3 1,-6 0,-2 0,-4 0,-7 0,-2 0,-4 0,-6 0,-2 0,-4 0,-6 0,-2 0,-4 0,-6 0,-3 -1,-3 -1,-6 0,-2 0,-4 0,-6 0,-3 1,-3 1,-6 0,-2 0,-4 0,-6 0,-3 -1,-3 -1,-6 0,-3 1,-3 1,-6 0,-3 -1,-3 -1,-6 0,-3 1,-3 1,-6 0,-2 -1,-4 -1,-6 0,-2 0,-4 0,-7 0,-2 0,-4 0,-6 0,-2 0,-4 0,-6 0,-2 0,-4 0,-6 -1,-2 -1,-4 -1,-6 -1,-3 -1,-5 -2,-7 0,-2 0,-4 -1,-6 0,-2 -1,-4 -2,-5 -1,-3 -1,-5 -1,-7 -1,-2 -2,-3 -3,-5 -1,-2 -2,-4 -3,-5 -1,-2 -2,-4 -2,-6 0,-1 0,-3 1,-5 1,-2 2,-3 4,-3 2,0 3,-1 5,0 2,0 4,1 6,1 2,0 4,1 6,1 2,0 4,1 6,1 2,0 5,1 7,1 2,0 4,1 6,1 2,0 4,1 6,1 2,0 4,1 6,1 2,0 4,1 6,1 2,0 4,1 6,1 2,0 4,1 6,1 3,0 3,1 6,2 3,0 3,-1 6,0 2,0 5,1 7,1 3,0 3,1 6,2 3,0 3,-1 6,0 2,0 4,1 6,1 2,0 4,1 6,1 2,0 4,1 6,1 2,0 4,1 6,1 2,0 4,1 6,1 2,0 4,1 6,1 2,0 4,2 6,2 2,0 4,1 6,1 2,0 4,2 6,2 2,0 4,1 6,2 2,0 4,1 6,1 2,0 4,1 6,2 2,0 4,2 6,2 2,0 4,1 6,2 1,0 3,1 5,2 2,0 4,2 6,2 2,0 4,2 6,2 2,1 4,2 6,3 2,0 4,2 5,3 2,0 4,2 6,2 2,1 4,2 6,3 2,1 3,2 5,4 2,1 4,2 6,3 2,1 3,2 5,4 2,0 4,2 6,3 1,1 3,2 5,4 2,1 4,2 5,3 2,1 4,3 5,5 2,1 4,2 5,4 2,1 4,2 5,4 2,1 4,3 5,5 2,1 3,2 5,4 2,2 3,3 4,5 2,1 3,2 5,5 1,1 2,3 4,4 1,1 3,2 4,4 2,1 3,3 5,5 1,2 2,4 3,5 1,2 3,3 4,4 1,2 2,4 3,5 1,2 3,4 4,5 1,2 2,3 3,5 1,2 3,3 4,5 1,2 2,4 3,5 0,2 1,4 2,6 1,1 2,3 3,5 1,2 2,3 3,5 1,2 1,4 2,6 1,1 2,3 2,5 1,2 2,4 2,6 1,2 2,4 3,5 0,2 1,4 2,6 0,2 1,4 2,6 0,2 1,4 1,5 1,2 1,4 2,6 0,2 1,4 2,6 0,2 0,4 1,6 0,2 2,3 2,5 1,2 1,4 1,6 0,2 1,4 1,6 1,2 1,4 2,6 0,2 0,4 0,6 1,2 1,4 1,6 1,2 0,4 1,6 0,2 0,4 1,6 0,2 1,3 1,5 0,2 0,4 0,6 0,2 0,4 0,6 1,2 2,4 2,6 0,2 -1,4 0,6 0,2 0,4 0,6 0,2 0,4 0,6 0,2 1,4 1,6 0,2 0,4 0,6 0,2 1,4 1,6 0,2 -1,4 -1,5 0,2 1,4 1,6 0,2 -1,4 -1,5 0,0 1,0 1,0 0,2 0,4 0,6z"/>
  <path class="fil0" d="M3905 1243c0,-2 0,-4 0,-6 0,-2 0,-4 0,-6 0,-2 0,-4 0,-6 0,-2 0,-4 0,-6 0,-2 0,-4 0,-6 1,-2 1,-4 1,-5 0,-2 0,-4 0,-6 1,-2 0,-4 0,-6 1,-2 2,-3 2,-5 0,-2 0,-4 0,-6 0,-2 0,-4 0,-6 0,-2 1,-4 1,-5 0,-2 0,-4 0,-6 1,-2 1,-4 1,-5 1,-2 1,-4 2,-5 0,-2 0,-4 0,-6 0,-2 1,-4 1,-5 0,-2 1,-4 2,-5 0,-2 0,-4 1,-5 0,-2 0,-4 0,-6 1,-2 1,-4 2,-5 0,-2 1,-4 1,-5 0,-2 1,-3 2,-4 0,-2 1,-4 2,-5 0,-2 0,-4 1,-5 0,-2 1,-4 2,-5 0,-2 1,-4 1,-5 1,-2 2,-2 3,-4 0,-2 1,-4 1,-5 1,-2 2,-3 3,-5 0,-1 1,-3 2,-4 0,-2 2,-3 2,-5 1,-1 2,-2 3,-4 1,-2 1,-4 2,-5 1,-1 3,-2 4,-4 1,-1 2,-2 3,-4 1,-2 2,-2 3,-4 1,-2 2,-2 3,-4 1,-2 2,-3 3,-4 1,-2 3,-2 4,-4 1,-2 2,-2 4,-4 1,-1 2,-2 4,-3 1,-2 2,-2 4,-4 1,-1 2,-2 3,-4 2,-1 3,-1 5,-2 1,-2 3,-3 4,-4 2,-1 3,-2 5,-3 1,-1 3,-1 4,-3 2,-1 4,-1 5,-2 2,-1 3,-2 5,-3 2,-1 3,-1 5,-2 2,-1 4,-1 5,-2 2,-1 4,-1 6,-2 1,-1 3,0 5,-1 2,-1 4,-1 6,-2 1,-1 3,0 5,-1 2,-1 4,-1 6,-2 2,0 4,0 5,-1 2,0 4,0 6,-1 2,0 4,1 6,0 2,0 4,0 6,-1 2,0 4,0 6,0 1,-1 3,0 5,-1 2,0 4,1 6,1 2,-1 4,0 6,-1 2,0 4,1 6,1 2,0 4,0 6,0 2,0 4,1 6,1 2,0 4,0 6,0 2,0 4,1 6,1 2,-1 4,1 6,1 2,0 4,0 6,0 3,1 5,2 7,2 2,0 4,1 6,1 2,0 4,2 6,2 2,0 4,1 6,1 2,1 4,2 6,2 2,0 4,2 6,3 2,0 4,1 6,1 3,2 4,3 6,4 2,0 4,1 6,2 2,0 4,2 6,2 2,0 5,1 7,1 2,0 4,1 6,0 2,0 4,0 6,-1 1,-1 3,0 4,-1 2,0 4,1 6,1 1,1 3,2 4,5 0,2 0,3 0,5 1,3 1,3 1,6 0,3 1,3 1,6 0,3 -1,3 0,6 0,2 0,4 0,6 0,2 0,3 0,5 1,2 1,4 2,6 0,2 0,4 0,6 0,2 0,4 0,6 0,2 0,4 0,6 1,3 0,3 1,6 0,2 0,3 0,5 0,3 1,3 1,6 0,2 0,4 0,6 0,3 1,3 1,6 0,2 0,4 0,6 0,2 0,4 0,6 0,3 0,3 1,5 0,2 0,4 0,6 1,3 0,3 1,6 0,2 -1,4 -2,5 -1,2 -2,2 -4,3 -2,1 -4,0 -6,-1 -2,0 -4,-2 -5,-3 -2,-2 -3,-4 -5,-6 -1,-2 -3,-3 -4,-5 -1,-1 -3,-2 -4,-5 -2,-1 -3,-3 -4,-5 -2,-1 -4,-3 -5,-4 -2,-1 -4,-3 -5,-4 -2,-1 -4,-3 -5,-4 -2,0 -4,-2 -6,-3 -2,-1 -3,-2 -5,-4 -2,-1 -4,-2 -6,-3 -1,0 -3,-2 -5,-2 -2,-1 -4,-2 -6,-2 -2,0 -4,-2 -6,-2 -2,-1 -4,-2 -6,-2 -2,0 -4,0 -6,0 -2,0 -4,-2 -6,-2 -2,0 -4,0 -6,0 -2,0 -4,-1 -6,-1 -2,1 -3,1 -5,1 -2,0 -4,0 -6,0 -2,1 -4,0 -6,1 -2,1 -4,1 -5,2 -2,0 -4,0 -6,1 -2,1 -4,0 -5,1 -2,1 -4,1 -6,3 -1,1 -3,1 -4,2 -2,1 -3,2 -5,3 -1,2 -3,2 -4,3 -2,2 -3,2 -4,4 -2,1 -3,2 -4,3 -1,2 -3,2 -4,4 -1,2 -2,2 -3,4 -1,2 -2,3 -3,5 -1,1 -2,2 -3,4 -1,1 -2,2 -3,4 -1,2 -1,4 -2,5 -1,1 -2,2 -3,4 -1,2 -1,4 -2,5 0,2 -1,3 -2,4 -1,2 -1,4 -2,5 0,2 -1,4 -1,5 -1,2 -2,3 -2,5 -1,2 -1,3 -2,4 0,2 0,4 -1,5 0,2 -1,4 -1,5 -1,2 -1,4 -1,5 0,2 0,4 -1,5 0,2 0,4 -1,5 0,2 0,4 -1,5 0,2 0,4 0,6 -1,2 -1,4 -1,5 0,2 0,4 0,6 -1,2 -1,4 -1,5 0,2 0,4 0,6 0,2 -1,4 -1,5 0,2 -1,4 -1,5 0,2 0,4 0,6 0,2 0,4 0,6 0,2 1,4 1,6 0,2 0,4 0,6 0,2 -1,4 -1,5 0,2 0,4 0,6 0,2 0,4 0,6 0,2 1,4 1,6 0,2 0,4 0,6 0,2 -1,4 0,6 0,2 0,4 0,6 0,2 0,4 0,6 0,2 1,4 1,6 1,2 0,4 1,6 0,2 0,4 0,6 0,2 0,4 1,6 0,2 0,4 1,6 0,2 0,4 0,6 0,2 1,4 1,6 0,2 1,3 2,5 0,2 0,4 0,6 0,2 1,4 2,6 0,2 1,4 1,6 1,2 1,4 1,6 1,2 1,4 2,6 0,2 1,3 2,5 1,2 1,4 2,6 0,2 1,4 2,6 0,2 1,3 2,5 1,2 1,4 2,6 1,2 2,3 3,5 0,2 1,4 2,6 1,1 2,3 3,5 1,2 2,4 3,5 1,2 2,3 3,5 1,1 3,3 4,4 2,2 3,4 4,5 1,2 3,3 4,5 1,1 3,2 4,5 2,1 4,3 6,4 1,1 3,2 4,4 2,1 4,3 5,4 2,1 4,2 6,3 2,1 4,2 5,3 2,1 4,3 6,4 2,0 4,1 6,2 2,0 4,2 6,2 2,1 4,1 6,2 2,0 4,1 6,1 2,0 3,1 5,0 2,-1 4,-1 5,-2 2,-1 3,-2 4,-4 1,-1 1,-4 1,-5 0,-2 0,-3 0,-5 0,-2 0,-3 0,-5 0,-2 0,-3 0,-5 0,-2 0,-4 0,-6 0,-2 0,-4 0,-6 0,-2 0,-3 0,-5 0,-2 0,-4 0,-6 0,-2 0,-4 0,-6 0,-2 0,-4 0,-6 0,-2 0,-4 0,-6 0,-2 0,-4 0,-6 0,-2 0,-4 0,-6 0,-2 0,-4 0,-6 0,-2 0,-4 0,-6 0,-2 0,-4 0,-6 0,-2 0,-4 0,-6 0,-2 0,-4 0,-6 0,-2 0,-4 0,-6 0,-2 0,-4 0,-6 0,-2 0,-4 0,-6 0,-2 0,-4 0,-6 0,-2 0,-3 0,-5 0,-2 0,-4 0,-6 0,-2 0,-4 0,-6 0,-2 0,-4 0,-6 0,-2 0,-4 0,-6 0,-2 0,-4 0,-6 0,-2 0,-4 0,-6 0,-2 0,-4 0,-7 0,-2 -1,-4 -1,-6 0,-2 0,-4 0,-6 0,-2 0,-4 0,-6 0,-2 -1,-4 -2,-6 0,-2 0,-4 0,-6 0,-2 0,-5 -1,-7 0,-2 -2,-3 -2,-5 -1,-2 -1,-4 -2,-6 -1,-2 -1,-4 -2,-6 -1,-2 -3,-4 -4,-5 -1,-2 -2,-4 -2,-5 0,-2 1,-4 2,-5 1,-1 2,-1 4,-2 1,-1 3,-1 5,-1 2,0 4,2 6,2 2,0 4,0 6,0 2,0 4,1 6,1 2,0 4,2 6,2 2,0 4,1 6,1 2,0 4,1 6,1 2,0 4,1 6,1 2,0 4,1 6,1 2,0 4,0 6,0 3,1 5,2 7,2 2,0 4,0 6,0 2,0 4,2 6,2 2,0 4,0 6,0 2,0 4,1 6,1 2,0 4,1 6,1 2,0 4,2 6,2 2,0 4,0 6,0 2,0 4,2 6,2 2,0 4,1 6,1 2,0 4,0 6,1 1,1 2,3 3,5 1,1 2,3 2,5 -1,1 -1,3 -2,4 -1,2 -2,2 -3,4 -1,2 -2,3 -3,5 -1,2 -2,2 -2,4 -1,2 -1,4 -2,5 0,2 0,5 -1,6 0,2 -1,4 -1,5 0,2 0,4 0,6 0,2 -1,4 -2,5 0,2 0,4 0,6 0,2 0,4 0,6 0,2 0,4 0,7 0,2 0,4 0,6 0,2 0,4 0,6 0,3 1,3 1,6 0,3 -1,3 -1,5 0,2 0,4 0,6 0,2 0,4 0,6 0,2 0,4 0,6 0,2 0,4 0,6 0,2 0,4 0,6 0,3 1,3 1,6 0,3 -1,3 -1,5 0,2 0,4 0,6 0,2 0,4 0,6 0,3 1,3 1,6 0,2 0,4 0,6 0,3 -1,3 -1,5 0,3 1,3 1,6 0,3 -1,3 -1,5 0,2 0,4 0,6 0,2 0,4 0,6 0,2 0,4 0,6 0,2 0,4 0,6 0,2 0,4 0,6 0,2 0,4 0,6 0,2 0,4 0,6 0,2 1,4 1,6 0,2 -1,4 0,6 0,2 0,4 0,6 0,2 1,4 1,6 1,2 0,4 1,6 0,2 1,4 2,6 0,2 1,4 1,6 1,1 1,4 2,5 0,2 2,4 3,6 0,2 2,3 3,5 1,2 2,4 1,7 0,2 -1,4 -3,5 -1,1 -3,1 -5,3 -1,1 -3,1 -4,2 -2,1 -3,2 -5,3 -1,1 -3,1 -5,2 -1,1 -3,1 -5,2 -1,1 -3,2 -4,3 -2,1 -4,1 -6,2 -1,1 -3,0 -5,1 -2,1 -4,1 -5,2 -2,0 -4,0 -6,1 -2,0 -3,1 -5,2 -2,0 -4,-1 -6,0 -2,1 -3,0 -5,1 -2,1 -4,0 -6,1 -2,1 -4,0 -6,1 -1,0 -3,0 -5,0 -2,1 -4,0 -6,1 -2,0 -4,0 -6,0 -1,1 -4,-1 -5,0 -2,0 -4,0 -6,0 -2,1 -4,0 -6,1 -2,0 -4,-2 -6,-2 -2,0 -4,0 -6,0 -2,0 -4,-1 -6,-1 -2,0 -4,0 -6,0 -2,0 -4,-2 -6,-2 -2,0 -4,-1 -6,-1 -2,0 -4,-2 -6,-2 -2,0 -4,-1 -6,-1 -2,-1 -4,-1 -6,-1 -2,-1 -4,-2 -6,-2 -2,-1 -4,-2 -6,-2 -2,0 -4,-2 -6,-2 -2,-1 -3,-2 -5,-3 -2,0 -4,-2 -6,-2 -2,0 -4,-2 -6,-2 -2,-1 -4,-2 -6,-3 -2,0 -4,-1 -6,-2 -2,-1 -4,-2 -6,-3 -2,-1 -3,-2 -5,-4 -2,-1 -4,-2 -6,-3 -2,-1 -3,-2 -5,-3 -2,-1 -4,-4 -5,-4 -2,-1 -4,-3 -6,-4 -2,-1 -4,-3 -5,-4 -2,-1 -4,-3 -6,-4 -1,-1 -2,-3 -4,-4 -2,-1 -4,-3 -5,-4 -2,-1 -3,-2 -5,-5 -2,-1 -3,-2 -5,-4 -1,-2 -2,-4 -4,-5 -1,-1 -3,-3 -4,-4 -2,-1 -3,-3 -4,-4 -2,-2 -3,-3 -5,-5 -1,-2 -2,-3 -4,-5 -1,-2 -2,-3 -4,-5 -1,-1 -1,-3 -3,-5 -1,-1 -2,-3 -3,-5 -1,-1 -3,-3 -4,-5 -1,-1 -2,-3 -3,-5 -1,-2 -2,-3 -3,-5 -1,-2 -2,-4 -3,-5 0,-2 -1,-4 -2,-6 -1,-2 -1,-4 -2,-5 -1,-2 -2,-4 -3,-6 -1,-2 -2,-3 -3,-5 0,-2 -1,-4 -1,-6 -1,-2 -2,-4 -3,-6 0,-2 -1,-3 -1,-5 -1,-2 -2,-4 -3,-6 0,-2 -1,-4 -2,-6 0,-2 0,-4 -1,-6 0,-2 -1,-4 -1,-5 -1,-2 -1,-4 -2,-6 0,-2 -1,-4 -1,-6 -1,-2 -1,-4 -2,-6 0,-2 -1,-4 -1,-6 0,-2 0,-4 0,-6 -1,-2 -1,-4 -2,-6 0,-2 0,-4 0,-6 -1,-2 -1,-4 -1,-6 -1,-2 -1,-4 -1,-6 0,-2 0,-4 -1,-6 0,-2 0,-4 0,-6 0,-2 -1,-4 -1,-6 0,-2 -1,-4 -1,-6 0,-2 0,-4 0,-6 0,-2 -1,-4 -1,-6 0,-2 0,-4 0,-6 0,-2 0,-4 0,-6 0,-2 0,-4 0,-6 0,-2 0,-4 0,-6 0,-2 -1,-4 -1,-6 0,-2 1,-4 1,-5 0,-2 0,-4 0,-6 0,-2 -1,-4 -1,-6 0,-2 0,-4 0,-6z"/>
  <path class="fil0" d="M4307 1600c-1,-1 -2,-3 -3,-4 -1,-2 -2,-4 -2,-5 1,-2 1,-4 2,-4 1,-2 2,-3 3,-5 1,-2 2,-2 3,-4 1,-2 1,-4 2,-5 0,-2 1,-4 1,-5 1,-2 1,-4 2,-5 0,-2 1,-4 1,-5 0,-2 1,-4 1,-6 0,-2 0,-4 0,-6 0,-2 0,-4 0,-6 0,-2 0,-4 0,-6 0,-2 1,-4 1,-5 0,-2 -1,-4 -1,-7 0,-3 1,-3 1,-5 0,-2 0,-4 0,-6 0,-2 0,-4 0,-6 0,-2 0,-4 0,-6 0,-2 0,-3 0,-5 0,-2 0,-4 0,-6 0,-2 0,-4 0,-6 0,-3 -1,-3 -1,-6 0,-3 1,-3 1,-5 0,-3 -1,-3 -1,-6 0,-2 0,-4 0,-6 0,-2 0,-4 0,-6 0,-3 1,-3 1,-5 0,-2 0,-4 0,-6 0,-2 0,-4 0,-6 0,-2 0,-4 0,-6 0,-2 0,-4 0,-6 0,-2 0,-4 0,-6 0,-2 0,-4 0,-6 0,-2 0,-4 0,-6 0,-3 -1,-3 -1,-6 0,-3 1,-3 1,-5 0,-2 0,-4 0,-6 0,-3 -1,-3 -1,-6 0,-3 1,-3 1,-5 0,-2 0,-4 0,-6 0,-2 0,-4 0,-6 0,-2 0,-4 0,-6 0,-2 0,-4 0,-6 0,-3 -1,-3 -1,-6 0,-2 0,-4 0,-6 0,-2 0,-4 0,-6 0,-3 1,-3 1,-5 0,-2 0,-4 0,-6 0,-3 -1,-3 -1,-6 0,-3 1,-3 1,-5 0,-3 -1,-3 -1,-6 0,-2 0,-4 0,-6 0,-3 1,-3 1,-5 0,-2 0,-4 0,-6 0,-2 0,-4 0,-6 0,-3 -1,-3 -1,-6 0,-3 1,-3 1,-5 0,-2 0,-4 0,-6 0,-2 0,-4 0,-6 0,-3 -1,-3 -1,-6 0,-3 1,-3 1,-5 0,-2 0,-4 0,-6 0,-2 0,-4 0,-6 0,-2 0,-4 0,-6 0,-2 0,-4 0,-6 0,-2 0,-4 0,-6 0,-2 0,-4 0,-6 0,-2 0,-4 0,-6 0,-2 0,-4 0,-6 0,-2 0,-4 0,-6 0,-2 0,-3 0,-5 0,-2 0,-4 0,-6 0,-2 0,-4 0,-6 0,-3 -1,-3 -1,-6 0,-2 0,-4 0,-6 0,-2 0,-4 0,-6 0,-3 1,-3 1,-5 0,-2 0,-4 0,-6 0,-2 0,-4 0,-6 0,-3 -1,-3 -1,-6 0,-3 1,-3 1,-5 0,-2 0,-4 0,-6 0,-2 0,-4 0,-6 0,-2 0,-4 0,-6 0,-3 -1,-3 -1,-6 0,-2 0,-4 0,-6 0,-2 0,-4 0,-7 0,-2 0,-4 0,-6 0,-2 0,-4 0,-6 -1,-2 -1,-4 -1,-6 0,-2 0,-4 -1,-6 0,-2 0,-4 0,-7 0,-2 -1,-4 -1,-6 -1,-2 -2,-4 -3,-6 0,-2 0,-4 -1,-6 -1,-1 -2,-3 -3,-5 -1,-2 -2,-4 -3,-5 -1,-2 -2,-4 -2,-6 0,-1 1,-3 2,-4 1,-1 2,-1 3,-2 2,-1 4,-1 5,-1 2,0 4,1 6,1 2,0 4,1 6,1 2,0 4,1 6,1 2,0 4,1 6,1 2,1 5,1 7,2 2,0 4,1 6,1 2,0 4,1 6,1 2,0 4,1 6,1 2,0 4,2 6,2 2,0 4,0 6,0 2,0 4,1 6,1 2,0 4,1 6,1 2,0 4,1 6,1 2,0 4,1 6,1 2,0 4,1 6,1 2,0 4,1 6,1 2,0 4,1 6,1 2,0 4,1 6,1 2,0 4,1 6,1 2,0 4,1 6,1 2,0 3,1 5,1 2,0 4,1 6,1 2,0 4,1 6,1 2,0 4,1 6,1 2,0 4,2 6,2 2,0 4,0 6,0 2,0 4,1 6,1 2,0 4,1 6,1 2,0 4,1 6,1 2,0 4,1 6,1 2,0 4,1 6,1 2,0 4,1 6,1 2,0 4,1 6,2 2,0 4,0 6,0 2,0 4,1 6,1 2,0 4,1 6,1 2,0 4,2 6,2 2,0 4,0 6,0 2,0 4,1 6,1 2,0 4,1 6,0 2,0 4,1 6,0 2,0 4,1 5,0 2,0 4,1 6,1 2,0 4,0 6,1 2,0 4,2 6,3 2,1 3,3 4,5 1,1 2,3 3,5 0,2 1,4 1,6 1,2 1,4 1,6 1,2 1,4 2,6 0,2 0,4 1,6 0,2 1,4 1,6 0,2 1,4 2,6 0,2 0,4 1,6 0,2 0,4 1,6 0,1 1,3 1,5 1,2 1,4 2,6 0,2 1,4 1,6 1,2 1,4 2,6 0,2 0,4 0,6 1,2 2,4 2,6 1,2 1,4 1,6 1,2 1,4 2,6l0 2c0,1 0,2 -1,3 0,1 -1,3 -2,2 -2,0 -4,1 -6,0 -1,0 -3,-2 -5,-3 -1,-1 -3,-3 -5,-4 -2,0 -4,-3 -5,-3 -2,-1 -4,-3 -6,-3 -2,-1 -4,-3 -6,-3 -2,-1 -4,-1 -6,-1 -2,-1 -4,-2 -6,-3 -1,0 -3,-2 -5,-2 -2,0 -4,-2 -6,-2 -2,0 -4,-1 -6,-1 -2,0 -4,-1 -6,-1 -2,0 -4,-1 -6,-1 -2,-1 -4,-1 -6,-1 -2,0 -4,-1 -6,-1 -3,-1 -3,-2 -6,-2 -2,0 -4,-1 -6,-1 -2,0 -4,-1 -6,-1 -2,0 -4,-1 -6,-1 -2,0 -4,-1 -6,-1 -2,0 -4,-1 -6,-1 -3,-1 -3,0 -6,0 -3,-1 -3,-2 -6,-2 -3,-1 -3,0 -6,0 -2,0 -4,-1 -6,-1 -2,0 -4,-1 -6,-1 -2,0 -4,-1 -6,-1 -2,0 -4,-1 -6,0 -2,0 -3,1 -5,2 -1,1 -2,2 -3,4 -1,1 -1,3 -1,4 0,2 0,4 0,6 0,3 -1,3 -1,5 0,2 0,4 0,6 0,3 1,3 1,6 0,2 0,4 0,6 0,2 0,4 0,6 0,2 0,3 0,5 0,3 -1,3 -1,5 0,3 1,3 1,6 0,2 0,4 0,6 0,2 0,4 0,6 0,3 -1,3 -1,5 0,2 0,4 0,6 0,2 0,3 0,5 0,3 1,3 1,6 0,2 0,4 0,6 0,2 0,4 0,6 0,2 0,4 0,6 0,2 0,4 0,6 1,2 3,4 4,5 2,2 3,4 5,5 2,0 4,2 6,2 2,0 4,1 6,1 2,1 5,1 7,2 2,1 5,1 7,2 2,0 4,1 6,1 2,1 5,1 7,2 2,0 4,0 6,0 2,0 4,2 6,2 2,0 4,0 6,0 2,0 4,1 6,1 3,1 5,0 7,1 2,0 4,1 6,0 2,0 4,0 6,0 2,0 4,0 6,0 2,0 4,0 6,0 2,0 4,-1 5,-2 2,0 4,0 6,0 1,-1 3,-1 5,-1 2,0 3,1 5,1 2,1 3,4 4,5 1,2 1,4 1,6 0,2 0,3 0,5 0,2 0,4 0,6 0,2 0,4 0,6 0,2 1,4 1,6 0,2 -1,4 -1,5 0,2 0,4 0,6 0,2 0,4 0,6 0,2 0,4 0,6 0,2 0,4 0,6 0,2 0,4 0,6 0,2 0,4 0,6 0,2 0,4 0,6 0,2 0,4 0,6 0,2 0,4 0,6 0,2 0,4 0,6 0,2 0,4 0,6 0,2 0,3 0,5 0,2 0,4 0,6 0,2 -1,4 -1,4 -1,2 -3,2 -4,3 -2,0 -4,1 -5,1 -2,-1 -4,-3 -5,-4 -2,-1 -4,-2 -6,-3 -2,-1 -3,-4 -5,-4 -2,-1 -4,-2 -6,-3 -2,-1 -4,-2 -6,-2 -2,-1 -4,-3 -6,-3 -2,-1 -4,-2 -6,-2 -2,0 -4,-1 -7,-3 -2,0 -4,0 -6,-1 -2,0 -4,-1 -6,-1 -2,-1 -4,-2 -6,-2 -2,0 -4,-1 -6,-1 -2,0 -4,0 -7,-1 -3,-1 -3,-2 -6,-2 -4,-1 -4,0 -7,-1 -2,-1 -5,-1 -7,-2 -3,-1 -3,-2 -6,-2 -2,0 -4,-1 -6,0 -2,0 -3,1 -5,3 -1,1 -2,2 -3,4 -1,1 -1,3 -1,4 0,2 0,4 0,6 0,3 -1,3 -1,5 0,3 1,3 1,6 0,2 0,4 0,6 0,3 -1,3 -1,5 0,4 1,4 1,7 0,2 0,4 0,6 0,2 0,4 0,6 0,3 -1,3 -1,5 0,3 1,3 1,6 0,2 0,4 0,6 0,2 0,4 0,6 0,2 0,4 0,6 0,2 0,4 0,6 0,2 0,4 0,6 0,3 -1,3 -1,5 0,3 1,3 1,6 0,3 -1,3 -1,5 0,2 0,4 0,6 0,3 1,3 1,6 0,2 0,4 0,6 0,2 0,4 0,7 0,2 0,4 0,6 0,2 0,4 0,6 0,2 0,4 1,5 1,2 2,4 3,5 2,2 3,3 5,5 2,1 4,1 6,1 3,1 3,2 6,2 2,0 4,1 6,1 2,0 4,1 6,1 2,0 4,1 6,1 2,0 3,1 5,1 3,1 3,0 6,0 2,0 4,1 6,1 2,0 4,1 6,1 3,1 3,2 6,2 2,0 4,1 6,1 3,1 3,0 6,0 3,1 3,2 6,2 2,0 4,0 6,0 2,0 4,1 6,1 2,0 4,1 6,1 2,0 4,1 6,1 2,0 4,1 6,1 2,0 4,0 6,0 2,0 4,0 6,1 2,0 4,0 5,0 2,0 4,0 6,1 2,0 4,-1 6,0 2,0 4,0 6,0 2,0 3,-1 5,-2 2,0 3,0 5,-1 2,0 4,-1 5,-1 2,0 4,2 5,3 2,1 3,3 4,4 1,2 1,4 0,5 0,2 -1,3 -2,5 0,2 0,4 -1,5 0,2 -1,4 -1,5 -1,2 -1,4 -2,5 0,2 -1,4 -1,5 0,2 -1,4 -1,5 0,2 -1,4 -2,5 0,2 0,4 0,6 -1,2 -1,4 -1,5 -1,2 -2,3 -2,5 0,2 -1,4 -1,5 -1,1 -2,2 -2,4 0,2 0,4 -1,5 0,2 -1,4 -1,5 -1,2 -1,4 -1,5 -1,2 -2,3 -2,5 0,2 -1,4 -2,5 -2,0 -3,1 -5,2 -2,0 -4,2 -6,1 -2,0 -4,-1 -6,-1 -2,-1 -4,-3 -5,-3 -2,0 -4,-2 -6,-3 -2,0 -4,-1 -6,-1 -2,0 -4,-1 -6,-1 -2,0 -4,-1 -6,-1 -2,0 -4,-2 -6,-2 -2,-1 -4,-1 -6,-1 -2,0 -4,-1 -6,-1 -2,0 -4,-1 -6,-1 -2,0 -4,-1 -6,-1 -2,0 -3,-1 -5,-1 -2,0 -4,-1 -6,-1 -2,0 -4,-1 -6,-1 -2,0 -4,-1 -6,-1 -2,0 -4,-1 -6,-1 -2,0 -4,-1 -6,-1 -2,0 -4,-1 -6,-1 -2,0 -4,-1 -6,-1 -2,0 -4,-1 -6,-1 -2,0 -4,-1 -6,-1 -2,0 -4,-1 -6,-1 -2,0 -4,-1 -6,-1 -2,0 -3,-1 -5,-1 -2,0 -4,-1 -6,-1 -2,0 -4,-1 -6,-1 -2,0 -4,-1 -6,-1 -2,0 -4,-1 -6,-1 -2,0 -4,-1 -6,-1 -2,0 -4,-1 -6,-1 -2,0 -4,-1 -6,-1 -2,0 -4,-1 -6,-1 -2,0 -4,-1 -6,-1 -2,0 -4,-1 -6,-1 -2,0 -3,-1 -5,-1 -2,0 -4,-1 -6,-1 -2,0 -4,-1 -6,-1 -2,0 -4,-1 -6,-1 -2,0 -4,-1 -6,-1 -2,0 -4,-1 -6,-1 -2,0 -4,-1 -6,-1 -2,0 -4,-1 -6,-1 -2,0 -5,-1 -7,-2 -2,-1 -5,-1 -7,-1 -1,0 -3,-1 -5,-2z"/>
  <path class="fil0" d="M360 1833c0,-46 0,-93 0,-139 10,-2 20,-4 30,-6 0,37 0,74 0,111 23,-4 46,-9 69,-13 0,9 0,19 0,28 -33,6 -66,12 -99,18z"/>
  <path class="fil0" d="M575 1797c-37,6 -60,-11 -60,-51 0,-26 0,-53 0,-79 10,-2 20,-4 30,-5 0,26 0,52 0,79 0,23 11,32 30,29 19,-3 30,-16 30,-38 0,-27 0,-53 0,-80 10,-2 20,-3 30,-5 0,26 0,52 0,78 0,42 -24,67 -61,73z"/>
  <path class="fil0" d="M790 1760c-10,-14 -21,-29 -31,-43 -10,17 -21,35 -31,52 -12,2 -23,4 -35,5 16,-26 32,-52 48,-78 -15,-20 -31,-41 -46,-61 12,-2 24,-4 36,-6 10,14 19,27 29,41 10,-17 20,-33 29,-49 12,-2 23,-3 35,-5 -15,25 -31,50 -46,75 16,21 32,43 48,64 -12,2 -24,3 -36,5z"/>
  <path class="fil0" d="M944 1741c-37,5 -60,-13 -60,-54 0,-26 0,-53 0,-79 10,-1 20,-3 31,-4 0,26 0,52 0,79 0,23 11,33 30,30 19,-2 30,-15 30,-37 0,-27 0,-53 0,-80 10,-1 20,-3 31,-4 0,26 0,52 0,78 0,42 -24,66 -61,71z"/>
  <path class="fil0" d="M1161 1621c0,-13 -9,-19 -24,-17 -10,1 -20,2 -30,4 0,13 0,27 0,40 10,-1 21,-2 31,-4 15,-2 23,-11 23,-22 0,0 0,0 0,0zm-1 92c-10,-14 -20,-27 -30,-41 -8,1 -16,2 -24,3 0,15 0,30 0,45 -10,1 -20,2 -31,4 0,-46 0,-93 0,-139 21,-3 42,-5 64,-7 33,-4 52,11 52,40 0,0 0,0 0,0 0,22 -12,38 -30,46 11,15 23,31 34,46 -12,1 -24,3 -36,4z"/>
  <path class="fil0" d="M1324 1640c0,18 0,37 0,55 -10,1 -20,2 -31,3 0,-18 0,-37 0,-55 -18,-26 -36,-53 -53,-79 12,-1 24,-2 36,-4 11,18 22,35 33,53 11,-20 23,-39 34,-59 12,-1 23,-2 35,-3 -18,29 -36,59 -53,89z"/>
  <path class="fil0" d="M1624 1629c0,-9 -7,-15 -23,-14 -12,1 -24,2 -35,3 0,10 0,20 0,31 12,-1 24,-2 36,-3 14,-1 22,-6 22,-17 0,0 0,0 0,0zm-8 -55c0,-9 -7,-14 -20,-13 -10,1 -20,1 -30,2 0,10 0,20 0,29 9,-1 19,-1 28,-2 14,-1 22,-6 22,-16 0,0 0,0 0,0zm-14 99c-22,2 -44,3 -66,5 0,-46 0,-93 0,-139 22,-2 43,-3 65,-5 28,-2 46,11 46,33 0,0 0,0 0,0 0,16 -8,25 -18,31 16,5 26,14 26,32 0,0 0,0 0,0 0,25 -21,39 -52,42z"/>
  <path class="fil0" d="M1830 1590c0,-24 -18,-43 -42,-42 -25,1 -42,22 -42,45 0,0 0,0 0,0 0,24 18,43 42,41 25,-1 42,-21 42,-45 0,0 0,0 0,0zm-42 74c-43,2 -74,-28 -74,-67 0,0 0,0 0,0 0,-40 31,-74 74,-76 43,-2 74,28 74,68 0,0 0,0 0,0 0,40 -31,73 -74,75z"/>
  <path class="fil0" d="M1981 1550c-6,15 -12,30 -19,46 12,0 25,-1 37,-1 -6,-15 -12,-30 -19,-44zm42 102c-4,-10 -9,-21 -13,-31 -20,1 -39,1 -59,2 -4,11 -9,21 -13,32 -10,0 -21,1 -31,1 20,-47 40,-95 60,-142 9,0 19,-1 28,-1 20,46 40,92 60,138 -11,0 -21,1 -32,1z"/>
  <path class="fil0" d="M2203 1557c0,-13 -9,-20 -24,-20 -10,0 -20,0 -31,0 0,13 0,27 0,40 10,0 21,0 31,0 15,0 24,-8 24,-20 0,0 0,0 0,0zm-1 92c-10,-15 -20,-29 -30,-44 -8,0 -16,0 -24,0 0,15 0,30 0,44 -10,0 -20,0 -31,1 0,-46 0,-93 0,-139 21,0 43,-1 64,-1 33,0 53,17 53,45 0,0 0,0 0,0 0,22 -12,37 -30,43 11,16 23,33 34,49 -12,0 -24,0 -36,0z"/>
  <path class="fil0" d="M2398 1579c0,-25 -17,-42 -42,-42 -8,0 -16,0 -24,0 0,28 0,56 0,84 8,0 16,0 24,0 25,0 42,-17 42,-41 0,0 0,0 0,0zm-42 69c-18,0 -36,0 -54,0 0,-46 0,-93 0,-139 18,0 36,0 54,0 44,0 74,31 74,70 0,0 0,0 0,0 0,39 -30,69 -74,69z"/>
  <path class="fil0" d="M2499 1650c0,-46 0,-93 0,-139 10,0 20,0 31,1 0,46 0,93 0,139 -10,0 -20,0 -31,-1z"/>
  <path class="fil0" d="M2702 1655c-23,-30 -45,-60 -68,-91 0,29 0,59 0,88 -10,0 -20,-1 -30,-1 0,-46 0,-93 0,-139 9,0 19,1 28,1 22,29 44,58 65,88 0,-29 0,-57 0,-86 10,0 20,1 30,1 0,46 0,93 0,139 -9,0 -17,-1 -26,-1z"/>
  <path class="fil0" d="M2869 1665c-43,-2 -73,-34 -73,-75 0,0 0,0 0,0 0,-40 31,-71 73,-68 25,1 40,9 55,22 -6,7 -13,15 -19,22 -11,-10 -20,-15 -36,-16 -22,-1 -40,18 -40,41 0,0 0,0 0,0 0,25 18,45 42,46 11,1 21,-2 29,-7 0,-7 0,-13 0,-20 -10,-1 -21,-1 -31,-2 0,-9 0,-18 0,-26 20,1 40,2 61,3 0,20 0,40 0,60 -14,11 -34,20 -60,19z"/>
  <path class="fil0" d="M3187 1684c-14,-21 -29,-42 -43,-63 -5,5 -11,10 -16,15 0,14 0,28 0,43 -10,-1 -20,-2 -31,-2 0,-46 0,-93 0,-139 10,1 20,2 31,2 0,20 0,41 0,61 19,-19 38,-38 57,-56 12,1 25,2 37,3 -19,18 -38,36 -57,54 20,28 40,57 59,85 -12,-1 -25,-2 -37,-3z"/>
  <path class="fil0" d="M3282 1692c0,-46 0,-93 0,-139 35,3 70,7 105,10 0,9 0,18 0,27 -25,-3 -50,-5 -75,-7 0,9 0,19 0,28 22,2 44,4 66,6 0,9 0,18 0,27 -22,-2 -44,-4 -66,-6 0,10 0,19 0,29 25,2 50,5 76,7 0,9 0,18 0,27 -35,-4 -71,-7 -106,-10z"/>
  <path class="fil0" d="M3553 1721c-22,-32 -45,-64 -67,-96 0,29 0,59 0,88 -10,-1 -20,-2 -30,-3 0,-46 0,-93 0,-139 9,1 19,2 28,3 22,31 43,62 65,93 0,-29 0,-57 0,-86 10,1 20,2 30,4 0,46 0,93 0,139 -9,-1 -17,-2 -26,-3z"/>
  <path class="fil0" d="M3749 1746c-22,-33 -45,-65 -67,-97 0,29 0,59 0,88 -10,-1 -20,-3 -30,-4 0,-46 0,-93 0,-139 9,1 19,2 28,4 22,31 43,63 65,94 0,-29 0,-57 0,-86 10,1 20,3 30,4 0,46 0,93 0,139 -9,-1 -17,-2 -26,-4z"/>
  <path class="fil0" d="M3848 1760c0,-46 0,-93 0,-139 35,5 70,10 104,16 0,9 0,18 0,27 -25,-4 -49,-8 -74,-11 0,9 0,19 0,28 22,3 44,7 65,10 0,9 0,18 0,27 -22,-3 -43,-7 -65,-10 0,10 0,19 0,29 25,4 50,8 75,12 0,9 0,18 0,27 -35,-6 -70,-11 -105,-16z"/>
  <path class="fil0" d="M4020 1787c0,-46 0,-93 0,-139 10,2 20,3 30,5 0,37 0,74 0,111 23,4 46,8 69,12 0,9 0,19 0,28 -33,-6 -66,-11 -99,-17z"/>
  <path class="fil0" d="M4230 1826c-21,-4 -42,-15 -59,-33 6,-6 12,-12 18,-18 12,13 25,22 41,24 12,2 20,-1 20,-9 0,0 0,0 0,0 0,-8 -5,-13 -28,-23 -28,-12 -46,-23 -46,-51 0,0 0,0 0,0 0,-25 20,-38 48,-33 20,4 37,13 51,27 -5,7 -11,13 -16,20 -12,-11 -24,-18 -36,-20 -12,-2 -18,2 -18,9 0,0 0,0 0,0 0,9 6,13 30,24 28,13 44,26 44,50 0,0 0,0 0,0 0,28 -21,39 -51,34z"/>
  <path class="fil1" d="M2768 823c0,-4 -1,-12 0,-16 2,-27 -2,-40 -16,-71 -19,-41 -29,-68 -34,-89 -9,-38 -29,-59 -66,-71 -7,-2 -15,-7 -24,-14l-3 -2c0,-1 -1,-2 -1,-3l-238 178c12,5 25,8 41,11 11,2 21,4 23,4 2,1 5,1 8,2 3,10 6,22 9,30 9,29 10,46 9,51 -3,12 -3,21 -1,29 -10,14 -17,35 0,62 3,5 31,40 50,48 5,2 12,3 17,4 3,1 6,1 8,1 10,0 35,-5 44,-41 0,-1 1,-2 1,-3 17,-18 17,-39 16,-54 0,-3 0,-9 1,-11 5,-24 1,-39 -8,-66 -13,-37 -22,-70 -26,-91 1,0 1,0 2,0 9,0 18,1 19,1 3,1 7,1 10,1 6,14 13,32 16,44 6,21 6,27 6,28 -3,16 -1,25 2,31 -2,5 -2,8 -2,9 0,1 0,1 -1,2 -12,34 7,54 19,62 9,6 32,19 43,23 10,4 21,4 26,4 6,0 23,0 35,-14l12 -12 -2 -17c0,-3 1,-10 2,-14 5,-13 5,-23 3,-35z"/>
  <path class="fil0" d="M1837 683c0,0 -16,1 -20,2 0,0 -1,0 -1,0 -6,17 -15,35 -27,53 -1,2 -3,4 -5,6 28,-2 57,-4 85,-5 -1,-5 -2,-10 -2,-15 1,-21 15,-35 27,-44 0,0 0,0 0,-1 -14,2 -28,3 -41,4 -6,0 -11,1 -17,1zm760 -562c-7,-26 -62,-21 -64,17 -2,37 3,2 9,-8 8,-15 42,-21 49,-6 8,15 11,15 6,-2zm270 -31c0,6 -1,9 -5,15 -5,9 -19,25 -26,31 -2,2 -5,5 -6,6 -1,1 -3,3 -6,5 -6,4 -36,27 -40,32 -3,3 -3,4 -2,9 1,7 0,9 -9,22l-8 10 3 7c6,13 20,28 36,36 10,5 8,10 -4,15 -6,2 -7,2 -21,1 -15,-2 -19,-3 -33,-12 -5,-3 -9,-5 -9,-5 -1,2 -3,7 -4,16 -1,6 -4,21 -6,34 -3,13 -5,27 -6,31 -2,15 -5,23 -14,34 -11,13 -18,17 -31,19 -7,1 -12,1 -15,0 -13,-4 -18,-11 -27,-33 -3,-8 -9,-21 -12,-27 -4,-7 -9,-17 -11,-23 -3,-6 -7,-15 -10,-19l-5 -9 -4 5c-8,10 -10,18 -14,50 -2,19 -6,33 -11,46 -10,23 -18,48 -17,55 0,2 3,8 5,15 3,6 6,17 8,24 3,11 3,13 1,24 -1,10 -1,18 2,26l0 0c1,4 3,8 5,12 9,14 13,23 16,34l3 11 12 10c13,10 25,17 37,21 24,7 33,17 39,42 5,23 16,52 37,96 12,27 14,34 13,52 0,6 0,17 0,23 1,10 1,12 -1,17 -2,4 -4,23 -4,30 0,2 -13,2 -18,0 -7,-3 -27,-14 -34,-19 -7,-5 -8,-8 -4,-17 1,-3 2,-8 2,-10 0,-2 3,-10 6,-18 3,-7 6,-14 6,-14 0,0 -2,1 -3,2 -4,4 -8,4 -10,2 -1,-1 0,-5 0,-9 2,-9 0,-22 -7,-46 -3,-9 -8,-23 -13,-36 0,0 0,0 -1,0 -7,-17 -13,-32 -15,-33 -2,-1 -5,-2 -13,-2 -6,0 -13,0 -17,-1 -4,-1 -15,-1 -26,-2 -17,0 -20,-1 -31,-5 -7,-2 -17,-7 -22,-11 -12,-8 -15,-9 -27,-9 -3,-2 -7,-4 -11,-7 11,-6 16,-24 18,-31 2,-8 4,-35 -1,-29 -4,6 -1,37 -28,54 -6,-4 -11,-8 -14,-10 -8,-9 -28,-19 -19,-11 8,9 20,20 39,33 1,2 13,10 16,11 8,3 21,11 25,16 7,8 11,17 12,32 2,23 13,62 29,109 9,25 10,31 7,45 -1,5 -2,14 -2,20 1,16 0,21 -6,26 -6,6 -8,11 -10,22 -2,9 -4,11 -8,9 -1,0 -3,0 -4,0 -1,0 -3,0 -4,-1 -4,-2 -26,-24 -31,-33 -5,-8 -5,-12 -1,-18 2,-2 4,-5 5,-7 1,-2 4,-9 8,-16 4,-7 6,-13 6,-13 0,0 -2,1 -4,2 -3,2 -5,3 -7,2 -3,-1 -3,-3 -1,-10 4,-12 0,-41 -10,-73 -3,-9 -7,-24 -10,-34 -3,-10 -6,-18 -6,-19 -1,-1 -6,-2 -10,-3 -5,-1 -12,-2 -16,-3 0,0 -1,0 -1,0 -5,-1 -17,-4 -28,-5 -25,-4 -38,-9 -58,-24 -8,-6 -19,-12 -25,-15l-11 -5 -5 2c-3,1 -21,12 -40,23 -19,11 -41,23 -48,27 -3,1 -6,3 -9,4 -26,1 -51,2 -77,3 0,0 1,-1 1,-1 11,-12 20,-25 24,-39 23,-30 35,-78 15,-113 -14,-26 -42,-38 -62,-45 -7,-3 -15,-5 -21,-6 -1,0 -3,-1 -4,-1 0,-1 1,-1 1,-2 10,-19 18,-42 6,-74 -3,-9 -7,-16 -11,-23 -6,-11 -2,-11 -2,-14 0,-2 -2,-7 1,-10 1,0 1,0 2,1 12,3 25,7 40,8 8,0 15,0 22,-1 20,-2 36,-10 46,-23 12,-14 16,-30 13,-47 0,-1 0,-2 -1,-3 18,-15 22,-34 23,-45l0 0c0,0 0,0 0,0 0,-1 0,-3 0,-4l0 0c-1,-23 -7,-38 -16,-48 5,-3 9,-5 14,-8 37,-19 58,-27 110,-42 15,-4 24,-8 55,-23 11,-5 20,-10 27,-13 9,40 2,88 -23,110 -35,30 14,36 12,31 -4,-8 -26,-8 -2,-28 12,-10 19,-25 23,-42 3,-21 28,-26 28,-26 0,0 -13,-5 -25,2 1,-9 1,-19 1,-27l0 0c-1,-17 18,-22 18,-22 0,0 -10,-3 -18,2 0,-4 0,-7 -1,-10 0,0 0,0 0,0 0,-2 0,-4 0,-6 -1,-5 -1,-11 -1,-14 1,-21 30,-22 30,-22 -8,-5 -18,-4 -27,0 2,-13 5,-24 10,-36 7,-16 34,-11 37,-10 -7,-7 -18,-9 -28,-7 7,-12 20,-23 35,-32 18,-9 35,5 37,8 0,-8 -7,-15 -14,-19 12,-4 24,-7 37,-8 19,-2 28,14 29,17 2,-5 -1,-12 -5,-18 30,0 48,6 76,23 18,12 23,16 35,30 7,8 19,26 19,29 24,12 30,27 32,36 2,9 7,2 0,-20 -3,-9 -8,-16 -14,-22 2,-1 4,-3 5,-5 16,-9 47,6 47,6 -6,-11 -19,-18 -32,-19 1,-1 2,-1 2,-2 18,-13 46,-3 52,4 -2,-9 -10,-17 -26,-19 24,-9 47,-1 66,26 7,10 10,19 10,31zm-719 574c-2,11 -9,22 -17,30 -6,6 -25,16 -34,13 -10,-3 -11,-20 -9,-29 1,-5 2,-8 5,-12 2,-2 6,-7 9,-10 1,-1 2,-1 4,-2 0,-1 -1,-2 0,-3 0,-2 1,-5 1,-7 2,-5 5,-10 8,-15 2,-2 5,-6 8,-9 -5,-8 -20,-11 -37,-12 -8,0 -17,0 -26,-1 -6,0 -11,-1 -15,-1 -10,-2 -20,-5 -29,-8 26,-16 17,-37 15,-31 -2,7 -10,17 -28,27 10,29 52,53 42,88 -7,22 -40,33 -60,40 -11,4 -22,7 -34,10 -13,1 -26,1 -38,2 -13,-13 4,-24 15,-33 0,-6 5,-8 13,-12 6,-2 16,-6 24,-4 4,-3 9,-4 13,-6 11,-6 4,-9 -3,-16 -13,-11 -27,-23 -38,-37 -15,2 -31,9 -45,11 -18,2 -37,3 -56,5 0,0 -1,0 -1,0 -14,1 -29,3 -44,3 -31,34 -79,50 -134,63 -25,6 -44,17 -59,31 -6,5 -12,11 -17,17 -21,2 -42,3 -64,5 10,-14 31,-7 46,-34 2,-3 3,-7 5,-11 32,-4 38,-14 32,-11 -6,2 -11,4 -30,6 -1,0 -2,0 -3,0 -55,3 -91,29 -122,56 -24,2 -48,4 -72,6 4,-6 7,-13 10,-20 14,-35 42,-8 70,-43 17,-22 39,-61 70,-95 9,-10 19,-20 30,-29 -32,-17 -65,-31 -96,-49 -16,-9 -33,-16 -50,-25 -2,-1 -4,-2 -6,-2 -12,-5 -31,-10 -34,-21 0,0 0,-1 0,-1 31,-14 63,-6 92,8 18,9 38,14 57,23 24,13 42,15 67,12 31,-31 79,-52 118,-69 36,-15 74,-17 111,-26 12,-12 25,-20 42,-30 18,-9 39,-34 60,-40 1,-3 2,-5 3,-8 4,-9 10,-17 15,-26 7,-14 26,-31 22,-47 0,0 0,0 0,0 0,-4 1,-3 6,-7 5,-4 0,-2 -9,0 -4,1 -9,3 -14,5 -3,1 -4,3 -8,3 0,0 -1,0 -1,-1 -6,-13 3,-34 14,-42 8,-7 19,-9 29,-12 6,-1 13,-3 19,-3 19,-15 50,-21 70,-18 37,5 62,15 72,30 10,7 19,13 32,13 13,1 24,1 35,2 0,0 1,0 1,0 10,1 10,14 10,24 0,1 0,2 0,3 0,0 0,0 0,0 0,23 -30,29 -56,30 8,8 41,22 38,33 -3,11 -24,15 -35,15 -16,-1 -42,-3 -58,-6 -19,6 -36,21 -40,40 -5,25 11,40 19,61 6,16 4,27 -4,42 -7,13 -10,26 -13,39 16,18 36,18 59,26 14,5 33,13 41,27 12,21 0,57 -17,75z"/>
 </g>
</svg>
